<svg width="772" height="220" xmlns="http://www.w3.org/2000/svg"><circle cx="60" cy="60" r="1" fill="gray" /><circle cx="60" cy="70" r="1" fill="gray" /><circle cx="60" cy="80" r="1" fill="gray" /><circle cx="60" cy="90" r="1" fill="gray" /><circle cx="60" cy="100" r="1" fill="gray" /><circle cx="60" cy="110" r="1" fill="gray" /><circle cx="60" cy="120" r="1" fill="gray" /><circle cx="60" cy="130" r="1" fill="gray" /><circle cx="60" cy="140" r="1" fill="gray" /><circle cx="60" cy="150" r="1" fill="gray" /><circle cx="60" cy="160" r="1" fill="gray" /><circle cx="70" cy="60" r="1" fill="gray" /><circle cx="70" cy="70" r="1" fill="gray" /><circle cx="70" cy="80" r="1" fill="gray" /><circle cx="70" cy="90" r="1" fill="gray" /><circle cx="70" cy="100" r="1" fill="gray" /><circle cx="70" cy="110" r="1" fill="gray" /><circle cx="70" cy="120" r="1" fill="gray" /><circle cx="70" cy="130" r="1" fill="gray" /><circle cx="70" cy="140" r="1" fill="gray" /><circle cx="70" cy="150" r="1" fill="gray" /><circle cx="70" cy="160" r="1" fill="gray" /><circle cx="80" cy="60" r="1" fill="gray" /><circle cx="80" cy="70" r="1" fill="gray" /><circle cx="80" cy="80" r="1" fill="gray" /><circle cx="80" cy="90" r="1" fill="gray" /><circle cx="80" cy="100" r="1" fill="gray" /><circle cx="80" cy="110" r="1" fill="gray" /><circle cx="80" cy="120" r="1" fill="gray" /><circle cx="80" cy="130" r="1" fill="gray" /><circle cx="80" cy="140" r="1" fill="gray" /><circle cx="80" cy="150" r="1" fill="gray" /><circle cx="80" cy="160" r="1" fill="gray" /><circle cx="90" cy="60" r="1" fill="gray" /><circle cx="90" cy="70" r="1" fill="gray" /><circle cx="90" cy="80" r="1" fill="gray" /><circle cx="90" cy="90" r="1" fill="gray" /><circle cx="90" cy="100" r="1" fill="gray" /><circle cx="90" cy="110" r="1" fill="gray" /><circle cx="90" cy="120" r="1" fill="gray" /><circle cx="90" cy="130" r="1" fill="gray" /><circle cx="90" cy="140" r="1" fill="gray" /><circle cx="90" cy="150" r="1" fill="gray" /><circle cx="90" cy="160" r="1" fill="gray" /><circle cx="100" cy="60" r="1" fill="gray" /><circle cx="100" cy="70" r="1" fill="gray" /><circle cx="100" cy="80" r="1" fill="gray" /><circle cx="100" cy="90" r="1" fill="gray" /><circle cx="100" cy="100" r="1" fill="gray" /><circle cx="100" cy="110" r="1" fill="gray" /><circle cx="100" cy="120" r="1" fill="gray" /><circle cx="100" cy="130" r="1" fill="gray" /><circle cx="100" cy="140" r="1" fill="gray" /><circle cx="100" cy="150" r="1" fill="gray" /><circle cx="100" cy="160" r="1" fill="gray" /><circle cx="110" cy="60" r="1" fill="gray" /><circle cx="110" cy="70" r="1" fill="gray" /><circle cx="110" cy="80" r="1" fill="gray" /><circle cx="110" cy="90" r="1" fill="gray" /><circle cx="110" cy="100" r="1" fill="gray" /><circle cx="110" cy="110" r="1" fill="gray" /><circle cx="110" cy="120" r="1" fill="gray" /><circle cx="110" cy="130" r="1" fill="gray" /><circle cx="110" cy="140" r="1" fill="gray" /><circle cx="110" cy="150" r="1" fill="gray" /><circle cx="110" cy="160" r="1" fill="gray" /><circle cx="120" cy="60" r="1" fill="gray" /><circle cx="120" cy="70" r="1" fill="gray" /><circle cx="120" cy="80" r="1" fill="gray" /><circle cx="120" cy="90" r="1" fill="gray" /><circle cx="120" cy="100" r="1" fill="gray" /><circle cx="120" cy="110" r="1" fill="gray" /><circle cx="120" cy="120" r="1" fill="gray" /><circle cx="120" cy="130" r="1" fill="gray" /><circle cx="120" cy="140" r="1" fill="gray" /><circle cx="120" cy="150" r="1" fill="gray" /><circle cx="120" cy="160" r="1" fill="gray" /><circle cx="130" cy="60" r="1" fill="gray" /><circle cx="130" cy="70" r="1" fill="gray" /><circle cx="130" cy="80" r="1" fill="gray" /><circle cx="130" cy="90" r="1" fill="gray" /><circle cx="130" cy="100" r="1" fill="gray" /><circle cx="130" cy="110" r="1" fill="gray" /><circle cx="130" cy="120" r="1" fill="gray" /><circle cx="130" cy="130" r="1" fill="gray" /><circle cx="130" cy="140" r="1" fill="gray" /><circle cx="130" cy="150" r="1" fill="gray" /><circle cx="130" cy="160" r="1" fill="gray" /><circle cx="78.25" cy="60.0" r="3" fill="blue" /><circle cx="78.25" cy="160.0" r="3" fill="blue" /><line x1="78.25" y1="60.0" x2="60.0" y2="76.66666666666666" style="stroke:rgb(0,0,0);stroke-width:2" /><line x1="78.25" y1="160.0" x2="78.25" y2="143.33333333333334" style="stroke:rgb(0,0,0);stroke-width:2" /><line x1="78.25" y1="60.0" x2="60.0" y2="76.66666666666666" style="stroke:rgb(0,0,0);stroke-width:2" /><circle cx="60.0" cy="76.66666666666666" r="3" fill="red" /><text x="60.0" y="76.66666666666666" fill="black" font-size="8">Prio: 1, Time: 4237</text><line x1="60.0" y1="76.66666666666666" x2="96.5" y2="76.66666666666666" style="stroke:rgb(0,0,0);stroke-width:2" /><circle cx="96.5" cy="76.66666666666666" r="3" fill="red" /><text x="96.5" y="76.66666666666666" fill="black" font-size="8">Prio: 1, Time: 4236</text><line x1="96.5" y1="76.66666666666666" x2="133.0" y2="76.66666666666666" style="stroke:rgb(0,0,0);stroke-width:2" /><circle cx="133.0" cy="76.66666666666666" r="3" fill="red" /><text x="133.0" y="76.66666666666666" fill="black" font-size="8">Prio: 2, Time: 7237</text><line x1="133.0" y1="76.66666666666666" x2="133.0" y2="85.0" style="stroke:rgb(0,0,0);stroke-width:2" /><circle cx="133.0" cy="85.0" r="3" fill="red" /><text x="133.0" y="85.0" fill="black" font-size="8">Prio: 2, Time: 7236</text><line x1="133.0" y1="85.0" x2="133.0" y2="93.33333333333333" style="stroke:rgb(0,0,0);stroke-width:2" /><circle cx="133.0" cy="93.33333333333333" r="3" fill="red" /><text x="133.0" y="93.33333333333333" fill="black" font-size="8">Prio: 3, Time: 11399</text><line x1="133.0" y1="93.33333333333333" x2="78.25" y2="101.66666666666667" style="stroke:rgb(0,0,0);stroke-width:2" /><circle cx="78.25" cy="101.66666666666667" r="3" fill="red" /><text x="78.25" y="101.66666666666667" fill="black" font-size="8">Prio: 3, Time: 11398</text><line x1="78.25" y1="101.66666666666667" x2="96.5" y2="126.66666666666666" style="stroke:rgb(0,0,0);stroke-width:2" /><circle cx="96.5" cy="126.66666666666666" r="3" fill="red" /><text x="96.5" y="126.66666666666666" fill="black" font-size="8">Prio: 4, Time: 16797</text><line x1="96.5" y1="126.66666666666666" x2="78.25" y2="143.33333333333334" style="stroke:rgb(0,0,0);stroke-width:2" /><circle cx="78.25" cy="143.33333333333334" r="3" fill="red" /><text x="78.25" y="143.33333333333334" fill="black" font-size="8">Prio: 4, Time: 16796</text><text x="60.0" y="215.0" fill="black" font-size="8">Path: 18,80, Priority: 0,00, DueDate: -8402,00</text><circle cx="253" cy="60" r="1" fill="gray" /><circle cx="253" cy="70" r="1" fill="gray" /><circle cx="253" cy="80" r="1" fill="gray" /><circle cx="253" cy="90" r="1" fill="gray" /><circle cx="253" cy="100" r="1" fill="gray" /><circle cx="253" cy="110" r="1" fill="gray" /><circle cx="253" cy="120" r="1" fill="gray" /><circle cx="253" cy="130" r="1" fill="gray" /><circle cx="253" cy="140" r="1" fill="gray" /><circle cx="253" cy="150" r="1" fill="gray" /><circle cx="253" cy="160" r="1" fill="gray" /><circle cx="263" cy="60" r="1" fill="gray" /><circle cx="263" cy="70" r="1" fill="gray" /><circle cx="263" cy="80" r="1" fill="gray" /><circle cx="263" cy="90" r="1" fill="gray" /><circle cx="263" cy="100" r="1" fill="gray" /><circle cx="263" cy="110" r="1" fill="gray" /><circle cx="263" cy="120" r="1" fill="gray" /><circle cx="263" cy="130" r="1" fill="gray" /><circle cx="263" cy="140" r="1" fill="gray" /><circle cx="263" cy="150" r="1" fill="gray" /><circle cx="263" cy="160" r="1" fill="gray" /><circle cx="273" cy="60" r="1" fill="gray" /><circle cx="273" cy="70" r="1" fill="gray" /><circle cx="273" cy="80" r="1" fill="gray" /><circle cx="273" cy="90" r="1" fill="gray" /><circle cx="273" cy="100" r="1" fill="gray" /><circle cx="273" cy="110" r="1" fill="gray" /><circle cx="273" cy="120" r="1" fill="gray" /><circle cx="273" cy="130" r="1" fill="gray" /><circle cx="273" cy="140" r="1" fill="gray" /><circle cx="273" cy="150" r="1" fill="gray" /><circle cx="273" cy="160" r="1" fill="gray" /><circle cx="283" cy="60" r="1" fill="gray" /><circle cx="283" cy="70" r="1" fill="gray" /><circle cx="283" cy="80" r="1" fill="gray" /><circle cx="283" cy="90" r="1" fill="gray" /><circle cx="283" cy="100" r="1" fill="gray" /><circle cx="283" cy="110" r="1" fill="gray" /><circle cx="283" cy="120" r="1" fill="gray" /><circle cx="283" cy="130" r="1" fill="gray" /><circle cx="283" cy="140" r="1" fill="gray" /><circle cx="283" cy="150" r="1" fill="gray" /><circle cx="283" cy="160" r="1" fill="gray" /><circle cx="293" cy="60" r="1" fill="gray" /><circle cx="293" cy="70" r="1" fill="gray" /><circle cx="293" cy="80" r="1" fill="gray" /><circle cx="293" cy="90" r="1" fill="gray" /><circle cx="293" cy="100" r="1" fill="gray" /><circle cx="293" cy="110" r="1" fill="gray" /><circle cx="293" cy="120" r="1" fill="gray" /><circle cx="293" cy="130" r="1" fill="gray" /><circle cx="293" cy="140" r="1" fill="gray" /><circle cx="293" cy="150" r="1" fill="gray" /><circle cx="293" cy="160" r="1" fill="gray" /><circle cx="303" cy="60" r="1" fill="gray" /><circle cx="303" cy="70" r="1" fill="gray" /><circle cx="303" cy="80" r="1" fill="gray" /><circle cx="303" cy="90" r="1" fill="gray" /><circle cx="303" cy="100" r="1" fill="gray" /><circle cx="303" cy="110" r="1" fill="gray" /><circle cx="303" cy="120" r="1" fill="gray" /><circle cx="303" cy="130" r="1" fill="gray" /><circle cx="303" cy="140" r="1" fill="gray" /><circle cx="303" cy="150" r="1" fill="gray" /><circle cx="303" cy="160" r="1" fill="gray" /><circle cx="313" cy="60" r="1" fill="gray" /><circle cx="313" cy="70" r="1" fill="gray" /><circle cx="313" cy="80" r="1" fill="gray" /><circle cx="313" cy="90" r="1" fill="gray" /><circle cx="313" cy="100" r="1" fill="gray" /><circle cx="313" cy="110" r="1" fill="gray" /><circle cx="313" cy="120" r="1" fill="gray" /><circle cx="313" cy="130" r="1" fill="gray" /><circle cx="313" cy="140" r="1" fill="gray" /><circle cx="313" cy="150" r="1" fill="gray" /><circle cx="313" cy="160" r="1" fill="gray" /><circle cx="323" cy="60" r="1" fill="gray" /><circle cx="323" cy="70" r="1" fill="gray" /><circle cx="323" cy="80" r="1" fill="gray" /><circle cx="323" cy="90" r="1" fill="gray" /><circle cx="323" cy="100" r="1" fill="gray" /><circle cx="323" cy="110" r="1" fill="gray" /><circle cx="323" cy="120" r="1" fill="gray" /><circle cx="323" cy="130" r="1" fill="gray" /><circle cx="323" cy="140" r="1" fill="gray" /><circle cx="323" cy="150" r="1" fill="gray" /><circle cx="323" cy="160" r="1" fill="gray" /><circle cx="271.25" cy="60.0" r="3" fill="blue" /><circle cx="271.25" cy="160.0" r="3" fill="blue" /><line x1="271.25" y1="60.0" x2="289.5" y2="76.66666666666666" style="stroke:rgb(0,0,0);stroke-width:2" /><line x1="271.25" y1="160.0" x2="326.0" y2="76.66666666666666" style="stroke:rgb(0,0,0);stroke-width:2" /><line x1="271.25" y1="60.0" x2="289.5" y2="76.66666666666666" style="stroke:rgb(0,0,0);stroke-width:2" /><circle cx="289.5" cy="76.66666666666666" r="3" fill="red" /><text x="289.5" y="76.66666666666666" fill="black" font-size="8">Prio: 1, Time: 4236</text><line x1="289.5" y1="76.66666666666666" x2="253.0" y2="76.66666666666666" style="stroke:rgb(0,0,0);stroke-width:2" /><circle cx="253.0" cy="76.66666666666666" r="3" fill="red" /><text x="253.0" y="76.66666666666666" fill="black" font-size="8">Prio: 1, Time: 4237</text><line x1="253.0" y1="76.66666666666666" x2="271.25" y2="101.66666666666667" style="stroke:rgb(0,0,0);stroke-width:2" /><circle cx="271.25" cy="101.66666666666667" r="3" fill="red" /><text x="271.25" y="101.66666666666667" fill="black" font-size="8">Prio: 3, Time: 11398</text><line x1="271.25" y1="101.66666666666667" x2="289.5" y2="126.66666666666666" style="stroke:rgb(0,0,0);stroke-width:2" /><circle cx="289.5" cy="126.66666666666666" r="3" fill="red" /><text x="289.5" y="126.66666666666666" fill="black" font-size="8">Prio: 4, Time: 16797</text><line x1="289.5" y1="126.66666666666666" x2="271.25" y2="143.33333333333334" style="stroke:rgb(0,0,0);stroke-width:2" /><circle cx="271.25" cy="143.33333333333334" r="3" fill="red" /><text x="271.25" y="143.33333333333334" fill="black" font-size="8">Prio: 4, Time: 16796</text><line x1="271.25" y1="143.33333333333334" x2="326.0" y2="93.33333333333333" style="stroke:rgb(0,0,0);stroke-width:2" /><circle cx="326.0" cy="93.33333333333333" r="3" fill="red" /><text x="326.0" y="93.33333333333333" fill="black" font-size="8">Prio: 3, Time: 11399</text><line x1="326.0" y1="93.33333333333333" x2="326.0" y2="85.0" style="stroke:rgb(0,0,0);stroke-width:2" /><circle cx="326.0" cy="85.0" r="3" fill="red" /><text x="326.0" y="85.0" fill="black" font-size="8">Prio: 2, Time: 7236</text><line x1="326.0" y1="85.0" x2="326.0" y2="76.66666666666666" style="stroke:rgb(0,0,0);stroke-width:2" /><circle cx="326.0" cy="76.66666666666666" r="3" fill="red" /><text x="326.0" y="76.66666666666666" fill="black" font-size="8">Prio: 2, Time: 7237</text><text x="253.0" y="215.0" fill="black" font-size="8">Path: 31,95, Priority: 8,00, DueDate: 19402,00</text><circle cx="446" cy="60" r="1" fill="gray" /><circle cx="446" cy="70" r="1" fill="gray" /><circle cx="446" cy="80" r="1" fill="gray" /><circle cx="446" cy="90" r="1" fill="gray" /><circle cx="446" cy="100" r="1" fill="gray" /><circle cx="446" cy="110" r="1" fill="gray" /><circle cx="446" cy="120" r="1" fill="gray" /><circle cx="446" cy="130" r="1" fill="gray" /><circle cx="446" cy="140" r="1" fill="gray" /><circle cx="446" cy="150" r="1" fill="gray" /><circle cx="446" cy="160" r="1" fill="gray" /><circle cx="456" cy="60" r="1" fill="gray" /><circle cx="456" cy="70" r="1" fill="gray" /><circle cx="456" cy="80" r="1" fill="gray" /><circle cx="456" cy="90" r="1" fill="gray" /><circle cx="456" cy="100" r="1" fill="gray" /><circle cx="456" cy="110" r="1" fill="gray" /><circle cx="456" cy="120" r="1" fill="gray" /><circle cx="456" cy="130" r="1" fill="gray" /><circle cx="456" cy="140" r="1" fill="gray" /><circle cx="456" cy="150" r="1" fill="gray" /><circle cx="456" cy="160" r="1" fill="gray" /><circle cx="466" cy="60" r="1" fill="gray" /><circle cx="466" cy="70" r="1" fill="gray" /><circle cx="466" cy="80" r="1" fill="gray" /><circle cx="466" cy="90" r="1" fill="gray" /><circle cx="466" cy="100" r="1" fill="gray" /><circle cx="466" cy="110" r="1" fill="gray" /><circle cx="466" cy="120" r="1" fill="gray" /><circle cx="466" cy="130" r="1" fill="gray" /><circle cx="466" cy="140" r="1" fill="gray" /><circle cx="466" cy="150" r="1" fill="gray" /><circle cx="466" cy="160" r="1" fill="gray" /><circle cx="476" cy="60" r="1" fill="gray" /><circle cx="476" cy="70" r="1" fill="gray" /><circle cx="476" cy="80" r="1" fill="gray" /><circle cx="476" cy="90" r="1" fill="gray" /><circle cx="476" cy="100" r="1" fill="gray" /><circle cx="476" cy="110" r="1" fill="gray" /><circle cx="476" cy="120" r="1" fill="gray" /><circle cx="476" cy="130" r="1" fill="gray" /><circle cx="476" cy="140" r="1" fill="gray" /><circle cx="476" cy="150" r="1" fill="gray" /><circle cx="476" cy="160" r="1" fill="gray" /><circle cx="486" cy="60" r="1" fill="gray" /><circle cx="486" cy="70" r="1" fill="gray" /><circle cx="486" cy="80" r="1" fill="gray" /><circle cx="486" cy="90" r="1" fill="gray" /><circle cx="486" cy="100" r="1" fill="gray" /><circle cx="486" cy="110" r="1" fill="gray" /><circle cx="486" cy="120" r="1" fill="gray" /><circle cx="486" cy="130" r="1" fill="gray" /><circle cx="486" cy="140" r="1" fill="gray" /><circle cx="486" cy="150" r="1" fill="gray" /><circle cx="486" cy="160" r="1" fill="gray" /><circle cx="496" cy="60" r="1" fill="gray" /><circle cx="496" cy="70" r="1" fill="gray" /><circle cx="496" cy="80" r="1" fill="gray" /><circle cx="496" cy="90" r="1" fill="gray" /><circle cx="496" cy="100" r="1" fill="gray" /><circle cx="496" cy="110" r="1" fill="gray" /><circle cx="496" cy="120" r="1" fill="gray" /><circle cx="496" cy="130" r="1" fill="gray" /><circle cx="496" cy="140" r="1" fill="gray" /><circle cx="496" cy="150" r="1" fill="gray" /><circle cx="496" cy="160" r="1" fill="gray" /><circle cx="506" cy="60" r="1" fill="gray" /><circle cx="506" cy="70" r="1" fill="gray" /><circle cx="506" cy="80" r="1" fill="gray" /><circle cx="506" cy="90" r="1" fill="gray" /><circle cx="506" cy="100" r="1" fill="gray" /><circle cx="506" cy="110" r="1" fill="gray" /><circle cx="506" cy="120" r="1" fill="gray" /><circle cx="506" cy="130" r="1" fill="gray" /><circle cx="506" cy="140" r="1" fill="gray" /><circle cx="506" cy="150" r="1" fill="gray" /><circle cx="506" cy="160" r="1" fill="gray" /><circle cx="516" cy="60" r="1" fill="gray" /><circle cx="516" cy="70" r="1" fill="gray" /><circle cx="516" cy="80" r="1" fill="gray" /><circle cx="516" cy="90" r="1" fill="gray" /><circle cx="516" cy="100" r="1" fill="gray" /><circle cx="516" cy="110" r="1" fill="gray" /><circle cx="516" cy="120" r="1" fill="gray" /><circle cx="516" cy="130" r="1" fill="gray" /><circle cx="516" cy="140" r="1" fill="gray" /><circle cx="516" cy="150" r="1" fill="gray" /><circle cx="516" cy="160" r="1" fill="gray" /><circle cx="464.25" cy="60.0" r="3" fill="blue" /><circle cx="464.25" cy="160.0" r="3" fill="blue" /><line x1="464.25" y1="60.0" x2="482.5" y2="76.66666666666666" style="stroke:rgb(0,0,0);stroke-width:2" /><line x1="464.25" y1="160.0" x2="482.5" y2="126.66666666666666" style="stroke:rgb(0,0,0);stroke-width:2" /><line x1="464.25" y1="60.0" x2="482.5" y2="76.66666666666666" style="stroke:rgb(0,0,0);stroke-width:2" /><circle cx="482.5" cy="76.66666666666666" r="3" fill="red" /><text x="482.5" y="76.66666666666666" fill="black" font-size="8">Prio: 1, Time: 4236</text><line x1="482.5" y1="76.66666666666666" x2="446.0" y2="76.66666666666666" style="stroke:rgb(0,0,0);stroke-width:2" /><circle cx="446.0" cy="76.66666666666666" r="3" fill="red" /><text x="446.0" y="76.66666666666666" fill="black" font-size="8">Prio: 1, Time: 4237</text><line x1="446.0" y1="76.66666666666666" x2="519.0" y2="85.0" style="stroke:rgb(0,0,0);stroke-width:2" /><circle cx="519.0" cy="85.0" r="3" fill="red" /><text x="519.0" y="85.0" fill="black" font-size="8">Prio: 2, Time: 7236</text><line x1="519.0" y1="85.0" x2="519.0" y2="76.66666666666666" style="stroke:rgb(0,0,0);stroke-width:2" /><circle cx="519.0" cy="76.66666666666666" r="3" fill="red" /><text x="519.0" y="76.66666666666666" fill="black" font-size="8">Prio: 2, Time: 7237</text><line x1="519.0" y1="76.66666666666666" x2="464.25" y2="101.66666666666667" style="stroke:rgb(0,0,0);stroke-width:2" /><circle cx="464.25" cy="101.66666666666667" r="3" fill="red" /><text x="464.25" y="101.66666666666667" fill="black" font-size="8">Prio: 3, Time: 11398</text><line x1="464.25" y1="101.66666666666667" x2="519.0" y2="93.33333333333333" style="stroke:rgb(0,0,0);stroke-width:2" /><circle cx="519.0" cy="93.33333333333333" r="3" fill="red" /><text x="519.0" y="93.33333333333333" fill="black" font-size="8">Prio: 3, Time: 11399</text><line x1="519.0" y1="93.33333333333333" x2="464.25" y2="143.33333333333334" style="stroke:rgb(0,0,0);stroke-width:2" /><circle cx="464.25" cy="143.33333333333334" r="3" fill="red" /><text x="464.25" y="143.33333333333334" fill="black" font-size="8">Prio: 4, Time: 16796</text><line x1="464.25" y1="143.33333333333334" x2="482.5" y2="126.66666666666666" style="stroke:rgb(0,0,0);stroke-width:2" /><circle cx="482.5" cy="126.66666666666666" r="3" fill="red" /><text x="482.5" y="126.66666666666666" fill="black" font-size="8">Prio: 4, Time: 16797</text><text x="446.0" y="215.0" fill="black" font-size="8">Path: 29,83, Priority: 0,00, DueDate: 24399,00</text><circle cx="639" cy="60" r="1" fill="gray" /><circle cx="639" cy="70" r="1" fill="gray" /><circle cx="639" cy="80" r="1" fill="gray" /><circle cx="639" cy="90" r="1" fill="gray" /><circle cx="639" cy="100" r="1" fill="gray" /><circle cx="639" cy="110" r="1" fill="gray" /><circle cx="639" cy="120" r="1" fill="gray" /><circle cx="639" cy="130" r="1" fill="gray" /><circle cx="639" cy="140" r="1" fill="gray" /><circle cx="639" cy="150" r="1" fill="gray" /><circle cx="639" cy="160" r="1" fill="gray" /><circle cx="649" cy="60" r="1" fill="gray" /><circle cx="649" cy="70" r="1" fill="gray" /><circle cx="649" cy="80" r="1" fill="gray" /><circle cx="649" cy="90" r="1" fill="gray" /><circle cx="649" cy="100" r="1" fill="gray" /><circle cx="649" cy="110" r="1" fill="gray" /><circle cx="649" cy="120" r="1" fill="gray" /><circle cx="649" cy="130" r="1" fill="gray" /><circle cx="649" cy="140" r="1" fill="gray" /><circle cx="649" cy="150" r="1" fill="gray" /><circle cx="649" cy="160" r="1" fill="gray" /><circle cx="659" cy="60" r="1" fill="gray" /><circle cx="659" cy="70" r="1" fill="gray" /><circle cx="659" cy="80" r="1" fill="gray" /><circle cx="659" cy="90" r="1" fill="gray" /><circle cx="659" cy="100" r="1" fill="gray" /><circle cx="659" cy="110" r="1" fill="gray" /><circle cx="659" cy="120" r="1" fill="gray" /><circle cx="659" cy="130" r="1" fill="gray" /><circle cx="659" cy="140" r="1" fill="gray" /><circle cx="659" cy="150" r="1" fill="gray" /><circle cx="659" cy="160" r="1" fill="gray" /><circle cx="669" cy="60" r="1" fill="gray" /><circle cx="669" cy="70" r="1" fill="gray" /><circle cx="669" cy="80" r="1" fill="gray" /><circle cx="669" cy="90" r="1" fill="gray" /><circle cx="669" cy="100" r="1" fill="gray" /><circle cx="669" cy="110" r="1" fill="gray" /><circle cx="669" cy="120" r="1" fill="gray" /><circle cx="669" cy="130" r="1" fill="gray" /><circle cx="669" cy="140" r="1" fill="gray" /><circle cx="669" cy="150" r="1" fill="gray" /><circle cx="669" cy="160" r="1" fill="gray" /><circle cx="679" cy="60" r="1" fill="gray" /><circle cx="679" cy="70" r="1" fill="gray" /><circle cx="679" cy="80" r="1" fill="gray" /><circle cx="679" cy="90" r="1" fill="gray" /><circle cx="679" cy="100" r="1" fill="gray" /><circle cx="679" cy="110" r="1" fill="gray" /><circle cx="679" cy="120" r="1" fill="gray" /><circle cx="679" cy="130" r="1" fill="gray" /><circle cx="679" cy="140" r="1" fill="gray" /><circle cx="679" cy="150" r="1" fill="gray" /><circle cx="679" cy="160" r="1" fill="gray" /><circle cx="689" cy="60" r="1" fill="gray" /><circle cx="689" cy="70" r="1" fill="gray" /><circle cx="689" cy="80" r="1" fill="gray" /><circle cx="689" cy="90" r="1" fill="gray" /><circle cx="689" cy="100" r="1" fill="gray" /><circle cx="689" cy="110" r="1" fill="gray" /><circle cx="689" cy="120" r="1" fill="gray" /><circle cx="689" cy="130" r="1" fill="gray" /><circle cx="689" cy="140" r="1" fill="gray" /><circle cx="689" cy="150" r="1" fill="gray" /><circle cx="689" cy="160" r="1" fill="gray" /><circle cx="699" cy="60" r="1" fill="gray" /><circle cx="699" cy="70" r="1" fill="gray" /><circle cx="699" cy="80" r="1" fill="gray" /><circle cx="699" cy="90" r="1" fill="gray" /><circle cx="699" cy="100" r="1" fill="gray" /><circle cx="699" cy="110" r="1" fill="gray" /><circle cx="699" cy="120" r="1" fill="gray" /><circle cx="699" cy="130" r="1" fill="gray" /><circle cx="699" cy="140" r="1" fill="gray" /><circle cx="699" cy="150" r="1" fill="gray" /><circle cx="699" cy="160" r="1" fill="gray" /><circle cx="709" cy="60" r="1" fill="gray" /><circle cx="709" cy="70" r="1" fill="gray" /><circle cx="709" cy="80" r="1" fill="gray" /><circle cx="709" cy="90" r="1" fill="gray" /><circle cx="709" cy="100" r="1" fill="gray" /><circle cx="709" cy="110" r="1" fill="gray" /><circle cx="709" cy="120" r="1" fill="gray" /><circle cx="709" cy="130" r="1" fill="gray" /><circle cx="709" cy="140" r="1" fill="gray" /><circle cx="709" cy="150" r="1" fill="gray" /><circle cx="709" cy="160" r="1" fill="gray" /><circle cx="657.25" cy="60.0" r="3" fill="blue" /><circle cx="657.25" cy="160.0" r="3" fill="blue" /><line x1="657.25" y1="60.0" x2="675.5" y2="76.66666666666666" style="stroke:rgb(0,0,0);stroke-width:2" /><line x1="657.25" y1="160.0" x2="675.5" y2="126.66666666666666" style="stroke:rgb(0,0,0);stroke-width:2" /><line x1="657.25" y1="60.0" x2="675.5" y2="76.66666666666666" style="stroke:rgb(0,0,0);stroke-width:2" /><circle cx="675.5" cy="76.66666666666666" r="3" fill="red" /><text x="675.5" y="76.66666666666666" fill="black" font-size="8">Prio: 1, Time: 4236</text><line x1="675.5" y1="76.66666666666666" x2="639.0" y2="76.66666666666666" style="stroke:rgb(0,0,0);stroke-width:2" /><circle cx="639.0" cy="76.66666666666666" r="3" fill="red" /><text x="639.0" y="76.66666666666666" fill="black" font-size="8">Prio: 1, Time: 4237</text><line x1="639.0" y1="76.66666666666666" x2="712.0" y2="85.0" style="stroke:rgb(0,0,0);stroke-width:2" /><circle cx="712.0" cy="85.0" r="3" fill="red" /><text x="712.0" y="85.0" fill="black" font-size="8">Prio: 2, Time: 7236</text><line x1="712.0" y1="85.0" x2="712.0" y2="76.66666666666666" style="stroke:rgb(0,0,0);stroke-width:2" /><circle cx="712.0" cy="76.66666666666666" r="3" fill="red" /><text x="712.0" y="76.66666666666666" fill="black" font-size="8">Prio: 2, Time: 7237</text><line x1="712.0" y1="76.66666666666666" x2="657.25" y2="101.66666666666667" style="stroke:rgb(0,0,0);stroke-width:2" /><circle cx="657.25" cy="101.66666666666667" r="3" fill="red" /><text x="657.25" y="101.66666666666667" fill="black" font-size="8">Prio: 3, Time: 11398</text><line x1="657.25" y1="101.66666666666667" x2="712.0" y2="93.33333333333333" style="stroke:rgb(0,0,0);stroke-width:2" /><circle cx="712.0" cy="93.33333333333333" r="3" fill="red" /><text x="712.0" y="93.33333333333333" fill="black" font-size="8">Prio: 3, Time: 11399</text><line x1="712.0" y1="93.33333333333333" x2="657.25" y2="143.33333333333334" style="stroke:rgb(0,0,0);stroke-width:2" /><circle cx="657.25" cy="143.33333333333334" r="3" fill="red" /><text x="657.25" y="143.33333333333334" fill="black" font-size="8">Prio: 4, Time: 16796</text><line x1="657.25" y1="143.33333333333334" x2="675.5" y2="126.66666666666666" style="stroke:rgb(0,0,0);stroke-width:2" /><circle cx="675.5" cy="126.66666666666666" r="3" fill="red" /><text x="675.5" y="126.66666666666666" fill="black" font-size="8">Prio: 4, Time: 16797</text><text x="639.0" y="215.0" fill="black" font-size="8">Path: 29,83, Priority: 0,00, DueDate: 24399,00</text></svg>