<svg width="628" height="220" xmlns="http://www.w3.org/2000/svg"><circle cx="60" cy="60" r="1" fill="gray" /><circle cx="60" cy="70" r="1" fill="gray" /><circle cx="60" cy="80" r="1" fill="gray" /><circle cx="60" cy="90" r="1" fill="gray" /><circle cx="60" cy="100" r="1" fill="gray" /><circle cx="60" cy="110" r="1" fill="gray" /><circle cx="60" cy="120" r="1" fill="gray" /><circle cx="60" cy="130" r="1" fill="gray" /><circle cx="60" cy="140" r="1" fill="gray" /><circle cx="60" cy="150" r="1" fill="gray" /><circle cx="60" cy="160" r="1" fill="gray" /><circle cx="70" cy="60" r="1" fill="gray" /><circle cx="70" cy="70" r="1" fill="gray" /><circle cx="70" cy="80" r="1" fill="gray" /><circle cx="70" cy="90" r="1" fill="gray" /><circle cx="70" cy="100" r="1" fill="gray" /><circle cx="70" cy="110" r="1" fill="gray" /><circle cx="70" cy="120" r="1" fill="gray" /><circle cx="70" cy="130" r="1" fill="gray" /><circle cx="70" cy="140" r="1" fill="gray" /><circle cx="70" cy="150" r="1" fill="gray" /><circle cx="70" cy="160" r="1" fill="gray" /><circle cx="80" cy="60" r="1" fill="gray" /><circle cx="80" cy="70" r="1" fill="gray" /><circle cx="80" cy="80" r="1" fill="gray" /><circle cx="80" cy="90" r="1" fill="gray" /><circle cx="80" cy="100" r="1" fill="gray" /><circle cx="80" cy="110" r="1" fill="gray" /><circle cx="80" cy="120" r="1" fill="gray" /><circle cx="80" cy="130" r="1" fill="gray" /><circle cx="80" cy="140" r="1" fill="gray" /><circle cx="80" cy="150" r="1" fill="gray" /><circle cx="80" cy="160" r="1" fill="gray" /><circle cx="90" cy="60" r="1" fill="gray" /><circle cx="90" cy="70" r="1" fill="gray" /><circle cx="90" cy="80" r="1" fill="gray" /><circle cx="90" cy="90" r="1" fill="gray" /><circle cx="90" cy="100" r="1" fill="gray" /><circle cx="90" cy="110" r="1" fill="gray" /><circle cx="90" cy="120" r="1" fill="gray" /><circle cx="90" cy="130" r="1" fill="gray" /><circle cx="90" cy="140" r="1" fill="gray" /><circle cx="90" cy="150" r="1" fill="gray" /><circle cx="90" cy="160" r="1" fill="gray" /><circle cx="97.0" cy="60.0" r="3" fill="blue" /><circle cx="97.0" cy="160.0" r="3" fill="blue" /><line x1="97.0" y1="60.0" x2="97.0" y2="85.0" style="stroke:rgb(0,0,0);stroke-width:2" /><line x1="97.0" y1="160.0" x2="97.0" y2="135.0" style="stroke:rgb(0,0,0);stroke-width:2" /><line x1="97.0" y1="60.0" x2="97.0" y2="85.0" style="stroke:rgb(0,0,0);stroke-width:2" /><circle cx="97.0" cy="85.0" r="3" fill="red" /><text x="97.0" y="85.0" fill="black" font-size="8">Prio: 1, Time: 5237</text><line x1="97.0" y1="85.0" x2="60.0" y2="76.66666666666666" style="stroke:rgb(0,0,0);stroke-width:2" /><circle cx="60.0" cy="76.66666666666666" r="3" fill="red" /><text x="60.0" y="76.66666666666666" fill="black" font-size="8">Prio: 1, Time: 5236</text><line x1="60.0" y1="76.66666666666666" x2="60.0" y2="93.33333333333333" style="stroke:rgb(0,0,0);stroke-width:2" /><circle cx="60.0" cy="93.33333333333333" r="3" fill="red" /><text x="60.0" y="93.33333333333333" fill="black" font-size="8">Prio: 2, Time: 9237</text><line x1="60.0" y1="93.33333333333333" x2="60.0" y2="110.0" style="stroke:rgb(0,0,0);stroke-width:2" /><circle cx="60.0" cy="110.0" r="3" fill="red" /><text x="60.0" y="110.0" fill="black" font-size="8">Prio: 2, Time: 9236</text><line x1="60.0" y1="110.0" x2="97.0" y2="101.66666666666667" style="stroke:rgb(0,0,0);stroke-width:2" /><circle cx="97.0" cy="101.66666666666667" r="3" fill="red" /><text x="97.0" y="101.66666666666667" fill="black" font-size="8">Prio: 3, Time: 13473</text><line x1="97.0" y1="101.66666666666667" x2="97.0" y2="118.33333333333334" style="stroke:rgb(0,0,0);stroke-width:2" /><circle cx="97.0" cy="118.33333333333334" r="3" fill="red" /><text x="97.0" y="118.33333333333334" fill="black" font-size="8">Prio: 3, Time: 13472</text><line x1="97.0" y1="118.33333333333334" x2="78.5" y2="126.66666666666666" style="stroke:rgb(0,0,0);stroke-width:2" /><circle cx="78.5" cy="126.66666666666666" r="3" fill="red" /><text x="78.5" y="126.66666666666666" fill="black" font-size="8">Prio: 4, Time: 16301</text><line x1="78.5" y1="126.66666666666666" x2="97.0" y2="135.0" style="stroke:rgb(0,0,0);stroke-width:2" /><circle cx="97.0" cy="135.0" r="3" fill="red" /><text x="97.0" y="135.0" fill="black" font-size="8">Prio: 4, Time: 16300</text><text x="60.0" y="215.0" fill="black" font-size="8">Path: 19,30, Priority: 0,00, DueDate: -7654,00</text><circle cx="217" cy="60" r="1" fill="gray" /><circle cx="217" cy="70" r="1" fill="gray" /><circle cx="217" cy="80" r="1" fill="gray" /><circle cx="217" cy="90" r="1" fill="gray" /><circle cx="217" cy="100" r="1" fill="gray" /><circle cx="217" cy="110" r="1" fill="gray" /><circle cx="217" cy="120" r="1" fill="gray" /><circle cx="217" cy="130" r="1" fill="gray" /><circle cx="217" cy="140" r="1" fill="gray" /><circle cx="217" cy="150" r="1" fill="gray" /><circle cx="217" cy="160" r="1" fill="gray" /><circle cx="227" cy="60" r="1" fill="gray" /><circle cx="227" cy="70" r="1" fill="gray" /><circle cx="227" cy="80" r="1" fill="gray" /><circle cx="227" cy="90" r="1" fill="gray" /><circle cx="227" cy="100" r="1" fill="gray" /><circle cx="227" cy="110" r="1" fill="gray" /><circle cx="227" cy="120" r="1" fill="gray" /><circle cx="227" cy="130" r="1" fill="gray" /><circle cx="227" cy="140" r="1" fill="gray" /><circle cx="227" cy="150" r="1" fill="gray" /><circle cx="227" cy="160" r="1" fill="gray" /><circle cx="237" cy="60" r="1" fill="gray" /><circle cx="237" cy="70" r="1" fill="gray" /><circle cx="237" cy="80" r="1" fill="gray" /><circle cx="237" cy="90" r="1" fill="gray" /><circle cx="237" cy="100" r="1" fill="gray" /><circle cx="237" cy="110" r="1" fill="gray" /><circle cx="237" cy="120" r="1" fill="gray" /><circle cx="237" cy="130" r="1" fill="gray" /><circle cx="237" cy="140" r="1" fill="gray" /><circle cx="237" cy="150" r="1" fill="gray" /><circle cx="237" cy="160" r="1" fill="gray" /><circle cx="247" cy="60" r="1" fill="gray" /><circle cx="247" cy="70" r="1" fill="gray" /><circle cx="247" cy="80" r="1" fill="gray" /><circle cx="247" cy="90" r="1" fill="gray" /><circle cx="247" cy="100" r="1" fill="gray" /><circle cx="247" cy="110" r="1" fill="gray" /><circle cx="247" cy="120" r="1" fill="gray" /><circle cx="247" cy="130" r="1" fill="gray" /><circle cx="247" cy="140" r="1" fill="gray" /><circle cx="247" cy="150" r="1" fill="gray" /><circle cx="247" cy="160" r="1" fill="gray" /><circle cx="254.0" cy="60.0" r="3" fill="blue" /><circle cx="254.0" cy="160.0" r="3" fill="blue" /><line x1="254.0" y1="60.0" x2="217.0" y2="76.66666666666666" style="stroke:rgb(0,0,0);stroke-width:2" /><line x1="254.0" y1="160.0" x2="254.0" y2="135.0" style="stroke:rgb(0,0,0);stroke-width:2" /><line x1="254.0" y1="60.0" x2="217.0" y2="76.66666666666666" style="stroke:rgb(0,0,0);stroke-width:2" /><circle cx="217.0" cy="76.66666666666666" r="3" fill="red" /><text x="217.0" y="76.66666666666666" fill="black" font-size="8">Prio: 1, Time: 5236</text><line x1="217.0" y1="76.66666666666666" x2="217.0" y2="93.33333333333333" style="stroke:rgb(0,0,0);stroke-width:2" /><circle cx="217.0" cy="93.33333333333333" r="3" fill="red" /><text x="217.0" y="93.33333333333333" fill="black" font-size="8">Prio: 2, Time: 9237</text><line x1="217.0" y1="93.33333333333333" x2="217.0" y2="110.0" style="stroke:rgb(0,0,0);stroke-width:2" /><circle cx="217.0" cy="110.0" r="3" fill="red" /><text x="217.0" y="110.0" fill="black" font-size="8">Prio: 2, Time: 9236</text><line x1="217.0" y1="110.0" x2="254.0" y2="101.66666666666667" style="stroke:rgb(0,0,0);stroke-width:2" /><circle cx="254.0" cy="101.66666666666667" r="3" fill="red" /><text x="254.0" y="101.66666666666667" fill="black" font-size="8">Prio: 3, Time: 13473</text><line x1="254.0" y1="101.66666666666667" x2="254.0" y2="85.0" style="stroke:rgb(0,0,0);stroke-width:2" /><circle cx="254.0" cy="85.0" r="3" fill="red" /><text x="254.0" y="85.0" fill="black" font-size="8">Prio: 1, Time: 5237</text><line x1="254.0" y1="85.0" x2="254.0" y2="118.33333333333334" style="stroke:rgb(0,0,0);stroke-width:2" /><circle cx="254.0" cy="118.33333333333334" r="3" fill="red" /><text x="254.0" y="118.33333333333334" fill="black" font-size="8">Prio: 3, Time: 13472</text><line x1="254.0" y1="118.33333333333334" x2="235.5" y2="126.66666666666666" style="stroke:rgb(0,0,0);stroke-width:2" /><circle cx="235.5" cy="126.66666666666666" r="3" fill="red" /><text x="235.5" y="126.66666666666666" fill="black" font-size="8">Prio: 4, Time: 16301</text><line x1="235.5" y1="126.66666666666666" x2="254.0" y2="135.0" style="stroke:rgb(0,0,0);stroke-width:2" /><circle cx="254.0" cy="135.0" r="3" fill="red" /><text x="254.0" y="135.0" fill="black" font-size="8">Prio: 4, Time: 16300</text><text x="217.0" y="215.0" fill="black" font-size="8">Path: 20,89, Priority: 4,00, DueDate: -4446,00</text><circle cx="374" cy="60" r="1" fill="gray" /><circle cx="374" cy="70" r="1" fill="gray" /><circle cx="374" cy="80" r="1" fill="gray" /><circle cx="374" cy="90" r="1" fill="gray" /><circle cx="374" cy="100" r="1" fill="gray" /><circle cx="374" cy="110" r="1" fill="gray" /><circle cx="374" cy="120" r="1" fill="gray" /><circle cx="374" cy="130" r="1" fill="gray" /><circle cx="374" cy="140" r="1" fill="gray" /><circle cx="374" cy="150" r="1" fill="gray" /><circle cx="374" cy="160" r="1" fill="gray" /><circle cx="384" cy="60" r="1" fill="gray" /><circle cx="384" cy="70" r="1" fill="gray" /><circle cx="384" cy="80" r="1" fill="gray" /><circle cx="384" cy="90" r="1" fill="gray" /><circle cx="384" cy="100" r="1" fill="gray" /><circle cx="384" cy="110" r="1" fill="gray" /><circle cx="384" cy="120" r="1" fill="gray" /><circle cx="384" cy="130" r="1" fill="gray" /><circle cx="384" cy="140" r="1" fill="gray" /><circle cx="384" cy="150" r="1" fill="gray" /><circle cx="384" cy="160" r="1" fill="gray" /><circle cx="394" cy="60" r="1" fill="gray" /><circle cx="394" cy="70" r="1" fill="gray" /><circle cx="394" cy="80" r="1" fill="gray" /><circle cx="394" cy="90" r="1" fill="gray" /><circle cx="394" cy="100" r="1" fill="gray" /><circle cx="394" cy="110" r="1" fill="gray" /><circle cx="394" cy="120" r="1" fill="gray" /><circle cx="394" cy="130" r="1" fill="gray" /><circle cx="394" cy="140" r="1" fill="gray" /><circle cx="394" cy="150" r="1" fill="gray" /><circle cx="394" cy="160" r="1" fill="gray" /><circle cx="404" cy="60" r="1" fill="gray" /><circle cx="404" cy="70" r="1" fill="gray" /><circle cx="404" cy="80" r="1" fill="gray" /><circle cx="404" cy="90" r="1" fill="gray" /><circle cx="404" cy="100" r="1" fill="gray" /><circle cx="404" cy="110" r="1" fill="gray" /><circle cx="404" cy="120" r="1" fill="gray" /><circle cx="404" cy="130" r="1" fill="gray" /><circle cx="404" cy="140" r="1" fill="gray" /><circle cx="404" cy="150" r="1" fill="gray" /><circle cx="404" cy="160" r="1" fill="gray" /><circle cx="411.0" cy="60.0" r="3" fill="blue" /><circle cx="411.0" cy="160.0" r="3" fill="blue" /><line x1="411.0" y1="60.0" x2="374.0" y2="76.66666666666666" style="stroke:rgb(0,0,0);stroke-width:2" /><line x1="411.0" y1="160.0" x2="411.0" y2="135.0" style="stroke:rgb(0,0,0);stroke-width:2" /><line x1="411.0" y1="60.0" x2="374.0" y2="76.66666666666666" style="stroke:rgb(0,0,0);stroke-width:2" /><circle cx="374.0" cy="76.66666666666666" r="3" fill="red" /><text x="374.0" y="76.66666666666666" fill="black" font-size="8">Prio: 1, Time: 5236</text><line x1="374.0" y1="76.66666666666666" x2="411.0" y2="85.0" style="stroke:rgb(0,0,0);stroke-width:2" /><circle cx="411.0" cy="85.0" r="3" fill="red" /><text x="411.0" y="85.0" fill="black" font-size="8">Prio: 1, Time: 5237</text><line x1="411.0" y1="85.0" x2="374.0" y2="93.33333333333333" style="stroke:rgb(0,0,0);stroke-width:2" /><circle cx="374.0" cy="93.33333333333333" r="3" fill="red" /><text x="374.0" y="93.33333333333333" fill="black" font-size="8">Prio: 2, Time: 9237</text><line x1="374.0" y1="93.33333333333333" x2="374.0" y2="110.0" style="stroke:rgb(0,0,0);stroke-width:2" /><circle cx="374.0" cy="110.0" r="3" fill="red" /><text x="374.0" y="110.0" fill="black" font-size="8">Prio: 2, Time: 9236</text><line x1="374.0" y1="110.0" x2="411.0" y2="101.66666666666667" style="stroke:rgb(0,0,0);stroke-width:2" /><circle cx="411.0" cy="101.66666666666667" r="3" fill="red" /><text x="411.0" y="101.66666666666667" fill="black" font-size="8">Prio: 3, Time: 13473</text><line x1="411.0" y1="101.66666666666667" x2="411.0" y2="118.33333333333334" style="stroke:rgb(0,0,0);stroke-width:2" /><circle cx="411.0" cy="118.33333333333334" r="3" fill="red" /><text x="411.0" y="118.33333333333334" fill="black" font-size="8">Prio: 3, Time: 13472</text><line x1="411.0" y1="118.33333333333334" x2="392.5" y2="126.66666666666666" style="stroke:rgb(0,0,0);stroke-width:2" /><circle cx="392.5" cy="126.66666666666666" r="3" fill="red" /><text x="392.5" y="126.66666666666666" fill="black" font-size="8">Prio: 4, Time: 16301</text><line x1="392.5" y1="126.66666666666666" x2="411.0" y2="135.0" style="stroke:rgb(0,0,0);stroke-width:2" /><circle cx="411.0" cy="135.0" r="3" fill="red" /><text x="411.0" y="135.0" fill="black" font-size="8">Prio: 4, Time: 16300</text><text x="374.0" y="215.0" fill="black" font-size="8">Path: 19,37, Priority: 0,00, DueDate: -7613,00</text><circle cx="531" cy="60" r="1" fill="gray" /><circle cx="531" cy="70" r="1" fill="gray" /><circle cx="531" cy="80" r="1" fill="gray" /><circle cx="531" cy="90" r="1" fill="gray" /><circle cx="531" cy="100" r="1" fill="gray" /><circle cx="531" cy="110" r="1" fill="gray" /><circle cx="531" cy="120" r="1" fill="gray" /><circle cx="531" cy="130" r="1" fill="gray" /><circle cx="531" cy="140" r="1" fill="gray" /><circle cx="531" cy="150" r="1" fill="gray" /><circle cx="531" cy="160" r="1" fill="gray" /><circle cx="541" cy="60" r="1" fill="gray" /><circle cx="541" cy="70" r="1" fill="gray" /><circle cx="541" cy="80" r="1" fill="gray" /><circle cx="541" cy="90" r="1" fill="gray" /><circle cx="541" cy="100" r="1" fill="gray" /><circle cx="541" cy="110" r="1" fill="gray" /><circle cx="541" cy="120" r="1" fill="gray" /><circle cx="541" cy="130" r="1" fill="gray" /><circle cx="541" cy="140" r="1" fill="gray" /><circle cx="541" cy="150" r="1" fill="gray" /><circle cx="541" cy="160" r="1" fill="gray" /><circle cx="551" cy="60" r="1" fill="gray" /><circle cx="551" cy="70" r="1" fill="gray" /><circle cx="551" cy="80" r="1" fill="gray" /><circle cx="551" cy="90" r="1" fill="gray" /><circle cx="551" cy="100" r="1" fill="gray" /><circle cx="551" cy="110" r="1" fill="gray" /><circle cx="551" cy="120" r="1" fill="gray" /><circle cx="551" cy="130" r="1" fill="gray" /><circle cx="551" cy="140" r="1" fill="gray" /><circle cx="551" cy="150" r="1" fill="gray" /><circle cx="551" cy="160" r="1" fill="gray" /><circle cx="561" cy="60" r="1" fill="gray" /><circle cx="561" cy="70" r="1" fill="gray" /><circle cx="561" cy="80" r="1" fill="gray" /><circle cx="561" cy="90" r="1" fill="gray" /><circle cx="561" cy="100" r="1" fill="gray" /><circle cx="561" cy="110" r="1" fill="gray" /><circle cx="561" cy="120" r="1" fill="gray" /><circle cx="561" cy="130" r="1" fill="gray" /><circle cx="561" cy="140" r="1" fill="gray" /><circle cx="561" cy="150" r="1" fill="gray" /><circle cx="561" cy="160" r="1" fill="gray" /><circle cx="568.0" cy="60.0" r="3" fill="blue" /><circle cx="568.0" cy="160.0" r="3" fill="blue" /><line x1="568.0" y1="60.0" x2="531.0" y2="76.66666666666666" style="stroke:rgb(0,0,0);stroke-width:2" /><line x1="568.0" y1="160.0" x2="549.5" y2="126.66666666666666" style="stroke:rgb(0,0,0);stroke-width:2" /><line x1="568.0" y1="60.0" x2="531.0" y2="76.66666666666666" style="stroke:rgb(0,0,0);stroke-width:2" /><circle cx="531.0" cy="76.66666666666666" r="3" fill="red" /><text x="531.0" y="76.66666666666666" fill="black" font-size="8">Prio: 1, Time: 5236</text><line x1="531.0" y1="76.66666666666666" x2="568.0" y2="85.0" style="stroke:rgb(0,0,0);stroke-width:2" /><circle cx="568.0" cy="85.0" r="3" fill="red" /><text x="568.0" y="85.0" fill="black" font-size="8">Prio: 1, Time: 5237</text><line x1="568.0" y1="85.0" x2="531.0" y2="110.0" style="stroke:rgb(0,0,0);stroke-width:2" /><circle cx="531.0" cy="110.0" r="3" fill="red" /><text x="531.0" y="110.0" fill="black" font-size="8">Prio: 2, Time: 9236</text><line x1="531.0" y1="110.0" x2="531.0" y2="93.33333333333333" style="stroke:rgb(0,0,0);stroke-width:2" /><circle cx="531.0" cy="93.33333333333333" r="3" fill="red" /><text x="531.0" y="93.33333333333333" fill="black" font-size="8">Prio: 2, Time: 9237</text><line x1="531.0" y1="93.33333333333333" x2="568.0" y2="118.33333333333334" style="stroke:rgb(0,0,0);stroke-width:2" /><circle cx="568.0" cy="118.33333333333334" r="3" fill="red" /><text x="568.0" y="118.33333333333334" fill="black" font-size="8">Prio: 3, Time: 13472</text><line x1="568.0" y1="118.33333333333334" x2="568.0" y2="101.66666666666667" style="stroke:rgb(0,0,0);stroke-width:2" /><circle cx="568.0" cy="101.66666666666667" r="3" fill="red" /><text x="568.0" y="101.66666666666667" fill="black" font-size="8">Prio: 3, Time: 13473</text><line x1="568.0" y1="101.66666666666667" x2="568.0" y2="135.0" style="stroke:rgb(0,0,0);stroke-width:2" /><circle cx="568.0" cy="135.0" r="3" fill="red" /><text x="568.0" y="135.0" fill="black" font-size="8">Prio: 4, Time: 16300</text><line x1="568.0" y1="135.0" x2="549.5" y2="126.66666666666666" style="stroke:rgb(0,0,0);stroke-width:2" /><circle cx="549.5" cy="126.66666666666666" r="3" fill="red" /><text x="549.5" y="126.66666666666666" fill="black" font-size="8">Prio: 4, Time: 16301</text><text x="531.0" y="215.0" fill="black" font-size="8">Path: 25,81, Priority: 0,00, DueDate: 11254,00</text></svg>