<svg width="920" height="220" xmlns="http://www.w3.org/2000/svg"><circle cx="60" cy="60" r="1" fill="gray" /><circle cx="60" cy="70" r="1" fill="gray" /><circle cx="60" cy="80" r="1" fill="gray" /><circle cx="60" cy="90" r="1" fill="gray" /><circle cx="60" cy="100" r="1" fill="gray" /><circle cx="60" cy="110" r="1" fill="gray" /><circle cx="60" cy="120" r="1" fill="gray" /><circle cx="60" cy="130" r="1" fill="gray" /><circle cx="60" cy="140" r="1" fill="gray" /><circle cx="60" cy="150" r="1" fill="gray" /><circle cx="60" cy="160" r="1" fill="gray" /><circle cx="70" cy="60" r="1" fill="gray" /><circle cx="70" cy="70" r="1" fill="gray" /><circle cx="70" cy="80" r="1" fill="gray" /><circle cx="70" cy="90" r="1" fill="gray" /><circle cx="70" cy="100" r="1" fill="gray" /><circle cx="70" cy="110" r="1" fill="gray" /><circle cx="70" cy="120" r="1" fill="gray" /><circle cx="70" cy="130" r="1" fill="gray" /><circle cx="70" cy="140" r="1" fill="gray" /><circle cx="70" cy="150" r="1" fill="gray" /><circle cx="70" cy="160" r="1" fill="gray" /><circle cx="80" cy="60" r="1" fill="gray" /><circle cx="80" cy="70" r="1" fill="gray" /><circle cx="80" cy="80" r="1" fill="gray" /><circle cx="80" cy="90" r="1" fill="gray" /><circle cx="80" cy="100" r="1" fill="gray" /><circle cx="80" cy="110" r="1" fill="gray" /><circle cx="80" cy="120" r="1" fill="gray" /><circle cx="80" cy="130" r="1" fill="gray" /><circle cx="80" cy="140" r="1" fill="gray" /><circle cx="80" cy="150" r="1" fill="gray" /><circle cx="80" cy="160" r="1" fill="gray" /><circle cx="90" cy="60" r="1" fill="gray" /><circle cx="90" cy="70" r="1" fill="gray" /><circle cx="90" cy="80" r="1" fill="gray" /><circle cx="90" cy="90" r="1" fill="gray" /><circle cx="90" cy="100" r="1" fill="gray" /><circle cx="90" cy="110" r="1" fill="gray" /><circle cx="90" cy="120" r="1" fill="gray" /><circle cx="90" cy="130" r="1" fill="gray" /><circle cx="90" cy="140" r="1" fill="gray" /><circle cx="90" cy="150" r="1" fill="gray" /><circle cx="90" cy="160" r="1" fill="gray" /><circle cx="100" cy="60" r="1" fill="gray" /><circle cx="100" cy="70" r="1" fill="gray" /><circle cx="100" cy="80" r="1" fill="gray" /><circle cx="100" cy="90" r="1" fill="gray" /><circle cx="100" cy="100" r="1" fill="gray" /><circle cx="100" cy="110" r="1" fill="gray" /><circle cx="100" cy="120" r="1" fill="gray" /><circle cx="100" cy="130" r="1" fill="gray" /><circle cx="100" cy="140" r="1" fill="gray" /><circle cx="100" cy="150" r="1" fill="gray" /><circle cx="100" cy="160" r="1" fill="gray" /><circle cx="110" cy="60" r="1" fill="gray" /><circle cx="110" cy="70" r="1" fill="gray" /><circle cx="110" cy="80" r="1" fill="gray" /><circle cx="110" cy="90" r="1" fill="gray" /><circle cx="110" cy="100" r="1" fill="gray" /><circle cx="110" cy="110" r="1" fill="gray" /><circle cx="110" cy="120" r="1" fill="gray" /><circle cx="110" cy="130" r="1" fill="gray" /><circle cx="110" cy="140" r="1" fill="gray" /><circle cx="110" cy="150" r="1" fill="gray" /><circle cx="110" cy="160" r="1" fill="gray" /><circle cx="120" cy="60" r="1" fill="gray" /><circle cx="120" cy="70" r="1" fill="gray" /><circle cx="120" cy="80" r="1" fill="gray" /><circle cx="120" cy="90" r="1" fill="gray" /><circle cx="120" cy="100" r="1" fill="gray" /><circle cx="120" cy="110" r="1" fill="gray" /><circle cx="120" cy="120" r="1" fill="gray" /><circle cx="120" cy="130" r="1" fill="gray" /><circle cx="120" cy="140" r="1" fill="gray" /><circle cx="120" cy="150" r="1" fill="gray" /><circle cx="120" cy="160" r="1" fill="gray" /><circle cx="130" cy="60" r="1" fill="gray" /><circle cx="130" cy="70" r="1" fill="gray" /><circle cx="130" cy="80" r="1" fill="gray" /><circle cx="130" cy="90" r="1" fill="gray" /><circle cx="130" cy="100" r="1" fill="gray" /><circle cx="130" cy="110" r="1" fill="gray" /><circle cx="130" cy="120" r="1" fill="gray" /><circle cx="130" cy="130" r="1" fill="gray" /><circle cx="130" cy="140" r="1" fill="gray" /><circle cx="130" cy="150" r="1" fill="gray" /><circle cx="130" cy="160" r="1" fill="gray" /><circle cx="140" cy="60" r="1" fill="gray" /><circle cx="140" cy="70" r="1" fill="gray" /><circle cx="140" cy="80" r="1" fill="gray" /><circle cx="140" cy="90" r="1" fill="gray" /><circle cx="140" cy="100" r="1" fill="gray" /><circle cx="140" cy="110" r="1" fill="gray" /><circle cx="140" cy="120" r="1" fill="gray" /><circle cx="140" cy="130" r="1" fill="gray" /><circle cx="140" cy="140" r="1" fill="gray" /><circle cx="140" cy="150" r="1" fill="gray" /><circle cx="140" cy="160" r="1" fill="gray" /><circle cx="150" cy="60" r="1" fill="gray" /><circle cx="150" cy="70" r="1" fill="gray" /><circle cx="150" cy="80" r="1" fill="gray" /><circle cx="150" cy="90" r="1" fill="gray" /><circle cx="150" cy="100" r="1" fill="gray" /><circle cx="150" cy="110" r="1" fill="gray" /><circle cx="150" cy="120" r="1" fill="gray" /><circle cx="150" cy="130" r="1" fill="gray" /><circle cx="150" cy="140" r="1" fill="gray" /><circle cx="150" cy="150" r="1" fill="gray" /><circle cx="150" cy="160" r="1" fill="gray" /><circle cx="160" cy="60" r="1" fill="gray" /><circle cx="160" cy="70" r="1" fill="gray" /><circle cx="160" cy="80" r="1" fill="gray" /><circle cx="160" cy="90" r="1" fill="gray" /><circle cx="160" cy="100" r="1" fill="gray" /><circle cx="160" cy="110" r="1" fill="gray" /><circle cx="160" cy="120" r="1" fill="gray" /><circle cx="160" cy="130" r="1" fill="gray" /><circle cx="160" cy="140" r="1" fill="gray" /><circle cx="160" cy="150" r="1" fill="gray" /><circle cx="160" cy="160" r="1" fill="gray" /><circle cx="170" cy="60" r="1" fill="gray" /><circle cx="170" cy="70" r="1" fill="gray" /><circle cx="170" cy="80" r="1" fill="gray" /><circle cx="170" cy="90" r="1" fill="gray" /><circle cx="170" cy="100" r="1" fill="gray" /><circle cx="170" cy="110" r="1" fill="gray" /><circle cx="170" cy="120" r="1" fill="gray" /><circle cx="170" cy="130" r="1" fill="gray" /><circle cx="170" cy="140" r="1" fill="gray" /><circle cx="170" cy="150" r="1" fill="gray" /><circle cx="170" cy="160" r="1" fill="gray" /><circle cx="115.0" cy="60.0" r="3" fill="blue" /><circle cx="115.0" cy="160.0" r="3" fill="blue" /><line x1="115.0" y1="60.0" x2="115.0" y2="85.0" style="stroke:rgb(0,0,0);stroke-width:2" /><line x1="115.0" y1="160.0" x2="115.0" y2="135.0" style="stroke:rgb(0,0,0);stroke-width:2" /><line x1="115.0" y1="60.0" x2="115.0" y2="85.0" style="stroke:rgb(0,0,0);stroke-width:2" /><circle cx="115.0" cy="85.0" r="3" fill="red" /><text x="115.0" y="85.0" fill="black" font-size="8">Prio: 1, Time: 5237</text><line x1="115.0" y1="85.0" x2="78.33333333333333" y2="76.66666666666666" style="stroke:rgb(0,0,0);stroke-width:2" /><circle cx="78.33333333333333" cy="76.66666666666666" r="3" fill="red" /><text x="78.33333333333333" y="76.66666666666666" fill="black" font-size="8">Prio: 1, Time: 5236</text><line x1="78.33333333333333" y1="76.66666666666666" x2="60.0" y2="93.33333333333333" style="stroke:rgb(0,0,0);stroke-width:2" /><circle cx="60.0" cy="93.33333333333333" r="3" fill="red" /><text x="60.0" y="93.33333333333333" fill="black" font-size="8">Prio: 2, Time: 9709</text><line x1="60.0" y1="93.33333333333333" x2="78.33333333333333" y2="110.0" style="stroke:rgb(0,0,0);stroke-width:2" /><circle cx="78.33333333333333" cy="110.0" r="3" fill="red" /><text x="78.33333333333333" y="110.0" fill="black" font-size="8">Prio: 2, Time: 9708</text><line x1="78.33333333333333" y1="110.0" x2="115.0" y2="101.66666666666667" style="stroke:rgb(0,0,0);stroke-width:2" /><circle cx="115.0" cy="101.66666666666667" r="3" fill="red" /><text x="115.0" y="101.66666666666667" fill="black" font-size="8">Prio: 3, Time: 13945</text><line x1="115.0" y1="101.66666666666667" x2="115.0" y2="118.33333333333334" style="stroke:rgb(0,0,0);stroke-width:2" /><circle cx="115.0" cy="118.33333333333334" r="3" fill="red" /><text x="115.0" y="118.33333333333334" fill="black" font-size="8">Prio: 3, Time: 13944</text><line x1="115.0" y1="118.33333333333334" x2="170.0" y2="126.66666666666666" style="stroke:rgb(0,0,0);stroke-width:2" /><circle cx="170.0" cy="126.66666666666666" r="3" fill="red" /><text x="170.0" y="126.66666666666666" fill="black" font-size="8">Prio: 4, Time: 20269</text><line x1="170.0" y1="126.66666666666666" x2="115.0" y2="135.0" style="stroke:rgb(0,0,0);stroke-width:2" /><circle cx="115.0" cy="135.0" r="3" fill="red" /><text x="115.0" y="135.0" fill="black" font-size="8">Prio: 4, Time: 20268</text><text x="60.0" y="215.0" fill="black" font-size="8">Path: 23,27, Priority: 0,00, DueDate: -9638,00</text><circle cx="290" cy="60" r="1" fill="gray" /><circle cx="290" cy="70" r="1" fill="gray" /><circle cx="290" cy="80" r="1" fill="gray" /><circle cx="290" cy="90" r="1" fill="gray" /><circle cx="290" cy="100" r="1" fill="gray" /><circle cx="290" cy="110" r="1" fill="gray" /><circle cx="290" cy="120" r="1" fill="gray" /><circle cx="290" cy="130" r="1" fill="gray" /><circle cx="290" cy="140" r="1" fill="gray" /><circle cx="290" cy="150" r="1" fill="gray" /><circle cx="290" cy="160" r="1" fill="gray" /><circle cx="300" cy="60" r="1" fill="gray" /><circle cx="300" cy="70" r="1" fill="gray" /><circle cx="300" cy="80" r="1" fill="gray" /><circle cx="300" cy="90" r="1" fill="gray" /><circle cx="300" cy="100" r="1" fill="gray" /><circle cx="300" cy="110" r="1" fill="gray" /><circle cx="300" cy="120" r="1" fill="gray" /><circle cx="300" cy="130" r="1" fill="gray" /><circle cx="300" cy="140" r="1" fill="gray" /><circle cx="300" cy="150" r="1" fill="gray" /><circle cx="300" cy="160" r="1" fill="gray" /><circle cx="310" cy="60" r="1" fill="gray" /><circle cx="310" cy="70" r="1" fill="gray" /><circle cx="310" cy="80" r="1" fill="gray" /><circle cx="310" cy="90" r="1" fill="gray" /><circle cx="310" cy="100" r="1" fill="gray" /><circle cx="310" cy="110" r="1" fill="gray" /><circle cx="310" cy="120" r="1" fill="gray" /><circle cx="310" cy="130" r="1" fill="gray" /><circle cx="310" cy="140" r="1" fill="gray" /><circle cx="310" cy="150" r="1" fill="gray" /><circle cx="310" cy="160" r="1" fill="gray" /><circle cx="320" cy="60" r="1" fill="gray" /><circle cx="320" cy="70" r="1" fill="gray" /><circle cx="320" cy="80" r="1" fill="gray" /><circle cx="320" cy="90" r="1" fill="gray" /><circle cx="320" cy="100" r="1" fill="gray" /><circle cx="320" cy="110" r="1" fill="gray" /><circle cx="320" cy="120" r="1" fill="gray" /><circle cx="320" cy="130" r="1" fill="gray" /><circle cx="320" cy="140" r="1" fill="gray" /><circle cx="320" cy="150" r="1" fill="gray" /><circle cx="320" cy="160" r="1" fill="gray" /><circle cx="330" cy="60" r="1" fill="gray" /><circle cx="330" cy="70" r="1" fill="gray" /><circle cx="330" cy="80" r="1" fill="gray" /><circle cx="330" cy="90" r="1" fill="gray" /><circle cx="330" cy="100" r="1" fill="gray" /><circle cx="330" cy="110" r="1" fill="gray" /><circle cx="330" cy="120" r="1" fill="gray" /><circle cx="330" cy="130" r="1" fill="gray" /><circle cx="330" cy="140" r="1" fill="gray" /><circle cx="330" cy="150" r="1" fill="gray" /><circle cx="330" cy="160" r="1" fill="gray" /><circle cx="340" cy="60" r="1" fill="gray" /><circle cx="340" cy="70" r="1" fill="gray" /><circle cx="340" cy="80" r="1" fill="gray" /><circle cx="340" cy="90" r="1" fill="gray" /><circle cx="340" cy="100" r="1" fill="gray" /><circle cx="340" cy="110" r="1" fill="gray" /><circle cx="340" cy="120" r="1" fill="gray" /><circle cx="340" cy="130" r="1" fill="gray" /><circle cx="340" cy="140" r="1" fill="gray" /><circle cx="340" cy="150" r="1" fill="gray" /><circle cx="340" cy="160" r="1" fill="gray" /><circle cx="350" cy="60" r="1" fill="gray" /><circle cx="350" cy="70" r="1" fill="gray" /><circle cx="350" cy="80" r="1" fill="gray" /><circle cx="350" cy="90" r="1" fill="gray" /><circle cx="350" cy="100" r="1" fill="gray" /><circle cx="350" cy="110" r="1" fill="gray" /><circle cx="350" cy="120" r="1" fill="gray" /><circle cx="350" cy="130" r="1" fill="gray" /><circle cx="350" cy="140" r="1" fill="gray" /><circle cx="350" cy="150" r="1" fill="gray" /><circle cx="350" cy="160" r="1" fill="gray" /><circle cx="360" cy="60" r="1" fill="gray" /><circle cx="360" cy="70" r="1" fill="gray" /><circle cx="360" cy="80" r="1" fill="gray" /><circle cx="360" cy="90" r="1" fill="gray" /><circle cx="360" cy="100" r="1" fill="gray" /><circle cx="360" cy="110" r="1" fill="gray" /><circle cx="360" cy="120" r="1" fill="gray" /><circle cx="360" cy="130" r="1" fill="gray" /><circle cx="360" cy="140" r="1" fill="gray" /><circle cx="360" cy="150" r="1" fill="gray" /><circle cx="360" cy="160" r="1" fill="gray" /><circle cx="370" cy="60" r="1" fill="gray" /><circle cx="370" cy="70" r="1" fill="gray" /><circle cx="370" cy="80" r="1" fill="gray" /><circle cx="370" cy="90" r="1" fill="gray" /><circle cx="370" cy="100" r="1" fill="gray" /><circle cx="370" cy="110" r="1" fill="gray" /><circle cx="370" cy="120" r="1" fill="gray" /><circle cx="370" cy="130" r="1" fill="gray" /><circle cx="370" cy="140" r="1" fill="gray" /><circle cx="370" cy="150" r="1" fill="gray" /><circle cx="370" cy="160" r="1" fill="gray" /><circle cx="380" cy="60" r="1" fill="gray" /><circle cx="380" cy="70" r="1" fill="gray" /><circle cx="380" cy="80" r="1" fill="gray" /><circle cx="380" cy="90" r="1" fill="gray" /><circle cx="380" cy="100" r="1" fill="gray" /><circle cx="380" cy="110" r="1" fill="gray" /><circle cx="380" cy="120" r="1" fill="gray" /><circle cx="380" cy="130" r="1" fill="gray" /><circle cx="380" cy="140" r="1" fill="gray" /><circle cx="380" cy="150" r="1" fill="gray" /><circle cx="380" cy="160" r="1" fill="gray" /><circle cx="390" cy="60" r="1" fill="gray" /><circle cx="390" cy="70" r="1" fill="gray" /><circle cx="390" cy="80" r="1" fill="gray" /><circle cx="390" cy="90" r="1" fill="gray" /><circle cx="390" cy="100" r="1" fill="gray" /><circle cx="390" cy="110" r="1" fill="gray" /><circle cx="390" cy="120" r="1" fill="gray" /><circle cx="390" cy="130" r="1" fill="gray" /><circle cx="390" cy="140" r="1" fill="gray" /><circle cx="390" cy="150" r="1" fill="gray" /><circle cx="390" cy="160" r="1" fill="gray" /><circle cx="400" cy="60" r="1" fill="gray" /><circle cx="400" cy="70" r="1" fill="gray" /><circle cx="400" cy="80" r="1" fill="gray" /><circle cx="400" cy="90" r="1" fill="gray" /><circle cx="400" cy="100" r="1" fill="gray" /><circle cx="400" cy="110" r="1" fill="gray" /><circle cx="400" cy="120" r="1" fill="gray" /><circle cx="400" cy="130" r="1" fill="gray" /><circle cx="400" cy="140" r="1" fill="gray" /><circle cx="400" cy="150" r="1" fill="gray" /><circle cx="400" cy="160" r="1" fill="gray" /><circle cx="345.0" cy="60.0" r="3" fill="blue" /><circle cx="345.0" cy="160.0" r="3" fill="blue" /><line x1="345.0" y1="60.0" x2="308.3333333333333" y2="76.66666666666666" style="stroke:rgb(0,0,0);stroke-width:2" /><line x1="345.0" y1="160.0" x2="290.0" y2="93.33333333333333" style="stroke:rgb(0,0,0);stroke-width:2" /><line x1="345.0" y1="60.0" x2="308.3333333333333" y2="76.66666666666666" style="stroke:rgb(0,0,0);stroke-width:2" /><circle cx="308.3333333333333" cy="76.66666666666666" r="3" fill="red" /><text x="308.3333333333333" y="76.66666666666666" fill="black" font-size="8">Prio: 1, Time: 5236</text><line x1="308.3333333333333" y1="76.66666666666666" x2="345.0" y2="85.0" style="stroke:rgb(0,0,0);stroke-width:2" /><circle cx="345.0" cy="85.0" r="3" fill="red" /><text x="345.0" y="85.0" fill="black" font-size="8">Prio: 1, Time: 5237</text><line x1="345.0" y1="85.0" x2="345.0" y2="101.66666666666667" style="stroke:rgb(0,0,0);stroke-width:2" /><circle cx="345.0" cy="101.66666666666667" r="3" fill="red" /><text x="345.0" y="101.66666666666667" fill="black" font-size="8">Prio: 3, Time: 13945</text><line x1="345.0" y1="101.66666666666667" x2="345.0" y2="118.33333333333334" style="stroke:rgb(0,0,0);stroke-width:2" /><circle cx="345.0" cy="118.33333333333334" r="3" fill="red" /><text x="345.0" y="118.33333333333334" fill="black" font-size="8">Prio: 3, Time: 13944</text><line x1="345.0" y1="118.33333333333334" x2="345.0" y2="135.0" style="stroke:rgb(0,0,0);stroke-width:2" /><circle cx="345.0" cy="135.0" r="3" fill="red" /><text x="345.0" y="135.0" fill="black" font-size="8">Prio: 4, Time: 20268</text><line x1="345.0" y1="135.0" x2="400.0" y2="126.66666666666666" style="stroke:rgb(0,0,0);stroke-width:2" /><circle cx="400.0" cy="126.66666666666666" r="3" fill="red" /><text x="400.0" y="126.66666666666666" fill="black" font-size="8">Prio: 4, Time: 20269</text><line x1="400.0" y1="126.66666666666666" x2="308.3333333333333" y2="110.0" style="stroke:rgb(0,0,0);stroke-width:2" /><circle cx="308.3333333333333" cy="110.0" r="3" fill="red" /><text x="308.3333333333333" y="110.0" fill="black" font-size="8">Prio: 2, Time: 9708</text><line x1="308.3333333333333" y1="110.0" x2="290.0" y2="93.33333333333333" style="stroke:rgb(0,0,0);stroke-width:2" /><circle cx="290.0" cy="93.33333333333333" r="3" fill="red" /><text x="290.0" y="93.33333333333333" fill="black" font-size="8">Prio: 2, Time: 9709</text><text x="290.0" y="215.0" fill="black" font-size="8">Path: 30,39, Priority: 8,00, DueDate: -7547,00</text><circle cx="520" cy="60" r="1" fill="gray" /><circle cx="520" cy="70" r="1" fill="gray" /><circle cx="520" cy="80" r="1" fill="gray" /><circle cx="520" cy="90" r="1" fill="gray" /><circle cx="520" cy="100" r="1" fill="gray" /><circle cx="520" cy="110" r="1" fill="gray" /><circle cx="520" cy="120" r="1" fill="gray" /><circle cx="520" cy="130" r="1" fill="gray" /><circle cx="520" cy="140" r="1" fill="gray" /><circle cx="520" cy="150" r="1" fill="gray" /><circle cx="520" cy="160" r="1" fill="gray" /><circle cx="530" cy="60" r="1" fill="gray" /><circle cx="530" cy="70" r="1" fill="gray" /><circle cx="530" cy="80" r="1" fill="gray" /><circle cx="530" cy="90" r="1" fill="gray" /><circle cx="530" cy="100" r="1" fill="gray" /><circle cx="530" cy="110" r="1" fill="gray" /><circle cx="530" cy="120" r="1" fill="gray" /><circle cx="530" cy="130" r="1" fill="gray" /><circle cx="530" cy="140" r="1" fill="gray" /><circle cx="530" cy="150" r="1" fill="gray" /><circle cx="530" cy="160" r="1" fill="gray" /><circle cx="540" cy="60" r="1" fill="gray" /><circle cx="540" cy="70" r="1" fill="gray" /><circle cx="540" cy="80" r="1" fill="gray" /><circle cx="540" cy="90" r="1" fill="gray" /><circle cx="540" cy="100" r="1" fill="gray" /><circle cx="540" cy="110" r="1" fill="gray" /><circle cx="540" cy="120" r="1" fill="gray" /><circle cx="540" cy="130" r="1" fill="gray" /><circle cx="540" cy="140" r="1" fill="gray" /><circle cx="540" cy="150" r="1" fill="gray" /><circle cx="540" cy="160" r="1" fill="gray" /><circle cx="550" cy="60" r="1" fill="gray" /><circle cx="550" cy="70" r="1" fill="gray" /><circle cx="550" cy="80" r="1" fill="gray" /><circle cx="550" cy="90" r="1" fill="gray" /><circle cx="550" cy="100" r="1" fill="gray" /><circle cx="550" cy="110" r="1" fill="gray" /><circle cx="550" cy="120" r="1" fill="gray" /><circle cx="550" cy="130" r="1" fill="gray" /><circle cx="550" cy="140" r="1" fill="gray" /><circle cx="550" cy="150" r="1" fill="gray" /><circle cx="550" cy="160" r="1" fill="gray" /><circle cx="560" cy="60" r="1" fill="gray" /><circle cx="560" cy="70" r="1" fill="gray" /><circle cx="560" cy="80" r="1" fill="gray" /><circle cx="560" cy="90" r="1" fill="gray" /><circle cx="560" cy="100" r="1" fill="gray" /><circle cx="560" cy="110" r="1" fill="gray" /><circle cx="560" cy="120" r="1" fill="gray" /><circle cx="560" cy="130" r="1" fill="gray" /><circle cx="560" cy="140" r="1" fill="gray" /><circle cx="560" cy="150" r="1" fill="gray" /><circle cx="560" cy="160" r="1" fill="gray" /><circle cx="570" cy="60" r="1" fill="gray" /><circle cx="570" cy="70" r="1" fill="gray" /><circle cx="570" cy="80" r="1" fill="gray" /><circle cx="570" cy="90" r="1" fill="gray" /><circle cx="570" cy="100" r="1" fill="gray" /><circle cx="570" cy="110" r="1" fill="gray" /><circle cx="570" cy="120" r="1" fill="gray" /><circle cx="570" cy="130" r="1" fill="gray" /><circle cx="570" cy="140" r="1" fill="gray" /><circle cx="570" cy="150" r="1" fill="gray" /><circle cx="570" cy="160" r="1" fill="gray" /><circle cx="580" cy="60" r="1" fill="gray" /><circle cx="580" cy="70" r="1" fill="gray" /><circle cx="580" cy="80" r="1" fill="gray" /><circle cx="580" cy="90" r="1" fill="gray" /><circle cx="580" cy="100" r="1" fill="gray" /><circle cx="580" cy="110" r="1" fill="gray" /><circle cx="580" cy="120" r="1" fill="gray" /><circle cx="580" cy="130" r="1" fill="gray" /><circle cx="580" cy="140" r="1" fill="gray" /><circle cx="580" cy="150" r="1" fill="gray" /><circle cx="580" cy="160" r="1" fill="gray" /><circle cx="590" cy="60" r="1" fill="gray" /><circle cx="590" cy="70" r="1" fill="gray" /><circle cx="590" cy="80" r="1" fill="gray" /><circle cx="590" cy="90" r="1" fill="gray" /><circle cx="590" cy="100" r="1" fill="gray" /><circle cx="590" cy="110" r="1" fill="gray" /><circle cx="590" cy="120" r="1" fill="gray" /><circle cx="590" cy="130" r="1" fill="gray" /><circle cx="590" cy="140" r="1" fill="gray" /><circle cx="590" cy="150" r="1" fill="gray" /><circle cx="590" cy="160" r="1" fill="gray" /><circle cx="600" cy="60" r="1" fill="gray" /><circle cx="600" cy="70" r="1" fill="gray" /><circle cx="600" cy="80" r="1" fill="gray" /><circle cx="600" cy="90" r="1" fill="gray" /><circle cx="600" cy="100" r="1" fill="gray" /><circle cx="600" cy="110" r="1" fill="gray" /><circle cx="600" cy="120" r="1" fill="gray" /><circle cx="600" cy="130" r="1" fill="gray" /><circle cx="600" cy="140" r="1" fill="gray" /><circle cx="600" cy="150" r="1" fill="gray" /><circle cx="600" cy="160" r="1" fill="gray" /><circle cx="610" cy="60" r="1" fill="gray" /><circle cx="610" cy="70" r="1" fill="gray" /><circle cx="610" cy="80" r="1" fill="gray" /><circle cx="610" cy="90" r="1" fill="gray" /><circle cx="610" cy="100" r="1" fill="gray" /><circle cx="610" cy="110" r="1" fill="gray" /><circle cx="610" cy="120" r="1" fill="gray" /><circle cx="610" cy="130" r="1" fill="gray" /><circle cx="610" cy="140" r="1" fill="gray" /><circle cx="610" cy="150" r="1" fill="gray" /><circle cx="610" cy="160" r="1" fill="gray" /><circle cx="620" cy="60" r="1" fill="gray" /><circle cx="620" cy="70" r="1" fill="gray" /><circle cx="620" cy="80" r="1" fill="gray" /><circle cx="620" cy="90" r="1" fill="gray" /><circle cx="620" cy="100" r="1" fill="gray" /><circle cx="620" cy="110" r="1" fill="gray" /><circle cx="620" cy="120" r="1" fill="gray" /><circle cx="620" cy="130" r="1" fill="gray" /><circle cx="620" cy="140" r="1" fill="gray" /><circle cx="620" cy="150" r="1" fill="gray" /><circle cx="620" cy="160" r="1" fill="gray" /><circle cx="630" cy="60" r="1" fill="gray" /><circle cx="630" cy="70" r="1" fill="gray" /><circle cx="630" cy="80" r="1" fill="gray" /><circle cx="630" cy="90" r="1" fill="gray" /><circle cx="630" cy="100" r="1" fill="gray" /><circle cx="630" cy="110" r="1" fill="gray" /><circle cx="630" cy="120" r="1" fill="gray" /><circle cx="630" cy="130" r="1" fill="gray" /><circle cx="630" cy="140" r="1" fill="gray" /><circle cx="630" cy="150" r="1" fill="gray" /><circle cx="630" cy="160" r="1" fill="gray" /><circle cx="575.0" cy="60.0" r="3" fill="blue" /><circle cx="575.0" cy="160.0" r="3" fill="blue" /><line x1="575.0" y1="60.0" x2="538.3333333333334" y2="76.66666666666666" style="stroke:rgb(0,0,0);stroke-width:2" /><line x1="575.0" y1="160.0" x2="575.0" y2="135.0" style="stroke:rgb(0,0,0);stroke-width:2" /><line x1="575.0" y1="60.0" x2="538.3333333333334" y2="76.66666666666666" style="stroke:rgb(0,0,0);stroke-width:2" /><circle cx="538.3333333333334" cy="76.66666666666666" r="3" fill="red" /><text x="538.3333333333334" y="76.66666666666666" fill="black" font-size="8">Prio: 1, Time: 5236</text><line x1="538.3333333333334" y1="76.66666666666666" x2="575.0" y2="85.0" style="stroke:rgb(0,0,0);stroke-width:2" /><circle cx="575.0" cy="85.0" r="3" fill="red" /><text x="575.0" y="85.0" fill="black" font-size="8">Prio: 1, Time: 5237</text><line x1="575.0" y1="85.0" x2="520.0" y2="93.33333333333333" style="stroke:rgb(0,0,0);stroke-width:2" /><circle cx="520.0" cy="93.33333333333333" r="3" fill="red" /><text x="520.0" y="93.33333333333333" fill="black" font-size="8">Prio: 2, Time: 9709</text><line x1="520.0" y1="93.33333333333333" x2="538.3333333333334" y2="110.0" style="stroke:rgb(0,0,0);stroke-width:2" /><circle cx="538.3333333333334" cy="110.0" r="3" fill="red" /><text x="538.3333333333334" y="110.0" fill="black" font-size="8">Prio: 2, Time: 9708</text><line x1="538.3333333333334" y1="110.0" x2="575.0" y2="101.66666666666667" style="stroke:rgb(0,0,0);stroke-width:2" /><circle cx="575.0" cy="101.66666666666667" r="3" fill="red" /><text x="575.0" y="101.66666666666667" fill="black" font-size="8">Prio: 3, Time: 13945</text><line x1="575.0" y1="101.66666666666667" x2="575.0" y2="118.33333333333334" style="stroke:rgb(0,0,0);stroke-width:2" /><circle cx="575.0" cy="118.33333333333334" r="3" fill="red" /><text x="575.0" y="118.33333333333334" fill="black" font-size="8">Prio: 3, Time: 13944</text><line x1="575.0" y1="118.33333333333334" x2="630.0" y2="126.66666666666666" style="stroke:rgb(0,0,0);stroke-width:2" /><circle cx="630.0" cy="126.66666666666666" r="3" fill="red" /><text x="630.0" y="126.66666666666666" fill="black" font-size="8">Prio: 4, Time: 20269</text><line x1="630.0" y1="126.66666666666666" x2="575.0" y2="135.0" style="stroke:rgb(0,0,0);stroke-width:2" /><circle cx="575.0" cy="135.0" r="3" fill="red" /><text x="575.0" y="135.0" fill="black" font-size="8">Prio: 4, Time: 20268</text><text x="520.0" y="215.0" fill="black" font-size="8">Path: 24,02, Priority: 0,00, DueDate: -5456,00</text><circle cx="750" cy="60" r="1" fill="gray" /><circle cx="750" cy="70" r="1" fill="gray" /><circle cx="750" cy="80" r="1" fill="gray" /><circle cx="750" cy="90" r="1" fill="gray" /><circle cx="750" cy="100" r="1" fill="gray" /><circle cx="750" cy="110" r="1" fill="gray" /><circle cx="750" cy="120" r="1" fill="gray" /><circle cx="750" cy="130" r="1" fill="gray" /><circle cx="750" cy="140" r="1" fill="gray" /><circle cx="750" cy="150" r="1" fill="gray" /><circle cx="750" cy="160" r="1" fill="gray" /><circle cx="760" cy="60" r="1" fill="gray" /><circle cx="760" cy="70" r="1" fill="gray" /><circle cx="760" cy="80" r="1" fill="gray" /><circle cx="760" cy="90" r="1" fill="gray" /><circle cx="760" cy="100" r="1" fill="gray" /><circle cx="760" cy="110" r="1" fill="gray" /><circle cx="760" cy="120" r="1" fill="gray" /><circle cx="760" cy="130" r="1" fill="gray" /><circle cx="760" cy="140" r="1" fill="gray" /><circle cx="760" cy="150" r="1" fill="gray" /><circle cx="760" cy="160" r="1" fill="gray" /><circle cx="770" cy="60" r="1" fill="gray" /><circle cx="770" cy="70" r="1" fill="gray" /><circle cx="770" cy="80" r="1" fill="gray" /><circle cx="770" cy="90" r="1" fill="gray" /><circle cx="770" cy="100" r="1" fill="gray" /><circle cx="770" cy="110" r="1" fill="gray" /><circle cx="770" cy="120" r="1" fill="gray" /><circle cx="770" cy="130" r="1" fill="gray" /><circle cx="770" cy="140" r="1" fill="gray" /><circle cx="770" cy="150" r="1" fill="gray" /><circle cx="770" cy="160" r="1" fill="gray" /><circle cx="780" cy="60" r="1" fill="gray" /><circle cx="780" cy="70" r="1" fill="gray" /><circle cx="780" cy="80" r="1" fill="gray" /><circle cx="780" cy="90" r="1" fill="gray" /><circle cx="780" cy="100" r="1" fill="gray" /><circle cx="780" cy="110" r="1" fill="gray" /><circle cx="780" cy="120" r="1" fill="gray" /><circle cx="780" cy="130" r="1" fill="gray" /><circle cx="780" cy="140" r="1" fill="gray" /><circle cx="780" cy="150" r="1" fill="gray" /><circle cx="780" cy="160" r="1" fill="gray" /><circle cx="790" cy="60" r="1" fill="gray" /><circle cx="790" cy="70" r="1" fill="gray" /><circle cx="790" cy="80" r="1" fill="gray" /><circle cx="790" cy="90" r="1" fill="gray" /><circle cx="790" cy="100" r="1" fill="gray" /><circle cx="790" cy="110" r="1" fill="gray" /><circle cx="790" cy="120" r="1" fill="gray" /><circle cx="790" cy="130" r="1" fill="gray" /><circle cx="790" cy="140" r="1" fill="gray" /><circle cx="790" cy="150" r="1" fill="gray" /><circle cx="790" cy="160" r="1" fill="gray" /><circle cx="800" cy="60" r="1" fill="gray" /><circle cx="800" cy="70" r="1" fill="gray" /><circle cx="800" cy="80" r="1" fill="gray" /><circle cx="800" cy="90" r="1" fill="gray" /><circle cx="800" cy="100" r="1" fill="gray" /><circle cx="800" cy="110" r="1" fill="gray" /><circle cx="800" cy="120" r="1" fill="gray" /><circle cx="800" cy="130" r="1" fill="gray" /><circle cx="800" cy="140" r="1" fill="gray" /><circle cx="800" cy="150" r="1" fill="gray" /><circle cx="800" cy="160" r="1" fill="gray" /><circle cx="810" cy="60" r="1" fill="gray" /><circle cx="810" cy="70" r="1" fill="gray" /><circle cx="810" cy="80" r="1" fill="gray" /><circle cx="810" cy="90" r="1" fill="gray" /><circle cx="810" cy="100" r="1" fill="gray" /><circle cx="810" cy="110" r="1" fill="gray" /><circle cx="810" cy="120" r="1" fill="gray" /><circle cx="810" cy="130" r="1" fill="gray" /><circle cx="810" cy="140" r="1" fill="gray" /><circle cx="810" cy="150" r="1" fill="gray" /><circle cx="810" cy="160" r="1" fill="gray" /><circle cx="820" cy="60" r="1" fill="gray" /><circle cx="820" cy="70" r="1" fill="gray" /><circle cx="820" cy="80" r="1" fill="gray" /><circle cx="820" cy="90" r="1" fill="gray" /><circle cx="820" cy="100" r="1" fill="gray" /><circle cx="820" cy="110" r="1" fill="gray" /><circle cx="820" cy="120" r="1" fill="gray" /><circle cx="820" cy="130" r="1" fill="gray" /><circle cx="820" cy="140" r="1" fill="gray" /><circle cx="820" cy="150" r="1" fill="gray" /><circle cx="820" cy="160" r="1" fill="gray" /><circle cx="830" cy="60" r="1" fill="gray" /><circle cx="830" cy="70" r="1" fill="gray" /><circle cx="830" cy="80" r="1" fill="gray" /><circle cx="830" cy="90" r="1" fill="gray" /><circle cx="830" cy="100" r="1" fill="gray" /><circle cx="830" cy="110" r="1" fill="gray" /><circle cx="830" cy="120" r="1" fill="gray" /><circle cx="830" cy="130" r="1" fill="gray" /><circle cx="830" cy="140" r="1" fill="gray" /><circle cx="830" cy="150" r="1" fill="gray" /><circle cx="830" cy="160" r="1" fill="gray" /><circle cx="840" cy="60" r="1" fill="gray" /><circle cx="840" cy="70" r="1" fill="gray" /><circle cx="840" cy="80" r="1" fill="gray" /><circle cx="840" cy="90" r="1" fill="gray" /><circle cx="840" cy="100" r="1" fill="gray" /><circle cx="840" cy="110" r="1" fill="gray" /><circle cx="840" cy="120" r="1" fill="gray" /><circle cx="840" cy="130" r="1" fill="gray" /><circle cx="840" cy="140" r="1" fill="gray" /><circle cx="840" cy="150" r="1" fill="gray" /><circle cx="840" cy="160" r="1" fill="gray" /><circle cx="850" cy="60" r="1" fill="gray" /><circle cx="850" cy="70" r="1" fill="gray" /><circle cx="850" cy="80" r="1" fill="gray" /><circle cx="850" cy="90" r="1" fill="gray" /><circle cx="850" cy="100" r="1" fill="gray" /><circle cx="850" cy="110" r="1" fill="gray" /><circle cx="850" cy="120" r="1" fill="gray" /><circle cx="850" cy="130" r="1" fill="gray" /><circle cx="850" cy="140" r="1" fill="gray" /><circle cx="850" cy="150" r="1" fill="gray" /><circle cx="850" cy="160" r="1" fill="gray" /><circle cx="860" cy="60" r="1" fill="gray" /><circle cx="860" cy="70" r="1" fill="gray" /><circle cx="860" cy="80" r="1" fill="gray" /><circle cx="860" cy="90" r="1" fill="gray" /><circle cx="860" cy="100" r="1" fill="gray" /><circle cx="860" cy="110" r="1" fill="gray" /><circle cx="860" cy="120" r="1" fill="gray" /><circle cx="860" cy="130" r="1" fill="gray" /><circle cx="860" cy="140" r="1" fill="gray" /><circle cx="860" cy="150" r="1" fill="gray" /><circle cx="860" cy="160" r="1" fill="gray" /><circle cx="805.0" cy="60.0" r="3" fill="blue" /><circle cx="805.0" cy="160.0" r="3" fill="blue" /><line x1="805.0" y1="60.0" x2="768.3333333333334" y2="76.66666666666666" style="stroke:rgb(0,0,0);stroke-width:2" /><line x1="805.0" y1="160.0" x2="860.0" y2="126.66666666666666" style="stroke:rgb(0,0,0);stroke-width:2" /><line x1="805.0" y1="60.0" x2="768.3333333333334" y2="76.66666666666666" style="stroke:rgb(0,0,0);stroke-width:2" /><circle cx="768.3333333333334" cy="76.66666666666666" r="3" fill="red" /><text x="768.3333333333334" y="76.66666666666666" fill="black" font-size="8">Prio: 1, Time: 5236</text><line x1="768.3333333333334" y1="76.66666666666666" x2="805.0" y2="85.0" style="stroke:rgb(0,0,0);stroke-width:2" /><circle cx="805.0" cy="85.0" r="3" fill="red" /><text x="805.0" y="85.0" fill="black" font-size="8">Prio: 1, Time: 5237</text><line x1="805.0" y1="85.0" x2="768.3333333333334" y2="110.0" style="stroke:rgb(0,0,0);stroke-width:2" /><circle cx="768.3333333333334" cy="110.0" r="3" fill="red" /><text x="768.3333333333334" y="110.0" fill="black" font-size="8">Prio: 2, Time: 9708</text><line x1="768.3333333333334" y1="110.0" x2="750.0" y2="93.33333333333333" style="stroke:rgb(0,0,0);stroke-width:2" /><circle cx="750.0" cy="93.33333333333333" r="3" fill="red" /><text x="750.0" y="93.33333333333333" fill="black" font-size="8">Prio: 2, Time: 9709</text><line x1="750.0" y1="93.33333333333333" x2="805.0" y2="118.33333333333334" style="stroke:rgb(0,0,0);stroke-width:2" /><circle cx="805.0" cy="118.33333333333334" r="3" fill="red" /><text x="805.0" y="118.33333333333334" fill="black" font-size="8">Prio: 3, Time: 13944</text><line x1="805.0" y1="118.33333333333334" x2="805.0" y2="101.66666666666667" style="stroke:rgb(0,0,0);stroke-width:2" /><circle cx="805.0" cy="101.66666666666667" r="3" fill="red" /><text x="805.0" y="101.66666666666667" fill="black" font-size="8">Prio: 3, Time: 13945</text><line x1="805.0" y1="101.66666666666667" x2="805.0" y2="135.0" style="stroke:rgb(0,0,0);stroke-width:2" /><circle cx="805.0" cy="135.0" r="3" fill="red" /><text x="805.0" y="135.0" fill="black" font-size="8">Prio: 4, Time: 20268</text><line x1="805.0" y1="135.0" x2="860.0" y2="126.66666666666666" style="stroke:rgb(0,0,0);stroke-width:2" /><circle cx="860.0" cy="126.66666666666666" r="3" fill="red" /><text x="860.0" y="126.66666666666666" fill="black" font-size="8">Prio: 4, Time: 20269</text><text x="750.0" y="215.0" fill="black" font-size="8">Path: 29,31, Priority: 0,00, DueDate: 6907,00</text></svg>