<svg width="700" height="220" xmlns="http://www.w3.org/2000/svg"><circle cx="60" cy="60" r="1" fill="gray" /><circle cx="60" cy="70" r="1" fill="gray" /><circle cx="60" cy="80" r="1" fill="gray" /><circle cx="60" cy="90" r="1" fill="gray" /><circle cx="60" cy="100" r="1" fill="gray" /><circle cx="60" cy="110" r="1" fill="gray" /><circle cx="60" cy="120" r="1" fill="gray" /><circle cx="60" cy="130" r="1" fill="gray" /><circle cx="60" cy="140" r="1" fill="gray" /><circle cx="60" cy="150" r="1" fill="gray" /><circle cx="60" cy="160" r="1" fill="gray" /><circle cx="70" cy="60" r="1" fill="gray" /><circle cx="70" cy="70" r="1" fill="gray" /><circle cx="70" cy="80" r="1" fill="gray" /><circle cx="70" cy="90" r="1" fill="gray" /><circle cx="70" cy="100" r="1" fill="gray" /><circle cx="70" cy="110" r="1" fill="gray" /><circle cx="70" cy="120" r="1" fill="gray" /><circle cx="70" cy="130" r="1" fill="gray" /><circle cx="70" cy="140" r="1" fill="gray" /><circle cx="70" cy="150" r="1" fill="gray" /><circle cx="70" cy="160" r="1" fill="gray" /><circle cx="80" cy="60" r="1" fill="gray" /><circle cx="80" cy="70" r="1" fill="gray" /><circle cx="80" cy="80" r="1" fill="gray" /><circle cx="80" cy="90" r="1" fill="gray" /><circle cx="80" cy="100" r="1" fill="gray" /><circle cx="80" cy="110" r="1" fill="gray" /><circle cx="80" cy="120" r="1" fill="gray" /><circle cx="80" cy="130" r="1" fill="gray" /><circle cx="80" cy="140" r="1" fill="gray" /><circle cx="80" cy="150" r="1" fill="gray" /><circle cx="80" cy="160" r="1" fill="gray" /><circle cx="90" cy="60" r="1" fill="gray" /><circle cx="90" cy="70" r="1" fill="gray" /><circle cx="90" cy="80" r="1" fill="gray" /><circle cx="90" cy="90" r="1" fill="gray" /><circle cx="90" cy="100" r="1" fill="gray" /><circle cx="90" cy="110" r="1" fill="gray" /><circle cx="90" cy="120" r="1" fill="gray" /><circle cx="90" cy="130" r="1" fill="gray" /><circle cx="90" cy="140" r="1" fill="gray" /><circle cx="90" cy="150" r="1" fill="gray" /><circle cx="90" cy="160" r="1" fill="gray" /><circle cx="100" cy="60" r="1" fill="gray" /><circle cx="100" cy="70" r="1" fill="gray" /><circle cx="100" cy="80" r="1" fill="gray" /><circle cx="100" cy="90" r="1" fill="gray" /><circle cx="100" cy="100" r="1" fill="gray" /><circle cx="100" cy="110" r="1" fill="gray" /><circle cx="100" cy="120" r="1" fill="gray" /><circle cx="100" cy="130" r="1" fill="gray" /><circle cx="100" cy="140" r="1" fill="gray" /><circle cx="100" cy="150" r="1" fill="gray" /><circle cx="100" cy="160" r="1" fill="gray" /><circle cx="110" cy="60" r="1" fill="gray" /><circle cx="110" cy="70" r="1" fill="gray" /><circle cx="110" cy="80" r="1" fill="gray" /><circle cx="110" cy="90" r="1" fill="gray" /><circle cx="110" cy="100" r="1" fill="gray" /><circle cx="110" cy="110" r="1" fill="gray" /><circle cx="110" cy="120" r="1" fill="gray" /><circle cx="110" cy="130" r="1" fill="gray" /><circle cx="110" cy="140" r="1" fill="gray" /><circle cx="110" cy="150" r="1" fill="gray" /><circle cx="110" cy="160" r="1" fill="gray" /><circle cx="115.0" cy="60.0" r="3" fill="blue" /><circle cx="115.0" cy="160.0" r="3" fill="blue" /><line x1="115.0" y1="60.0" x2="78.33333333333333" y2="76.66666666666666" style="stroke:rgb(0,0,0);stroke-width:2" /><line x1="115.0" y1="160.0" x2="115.0" y2="135.0" style="stroke:rgb(0,0,0);stroke-width:2" /><line x1="115.0" y1="60.0" x2="78.33333333333333" y2="76.66666666666666" style="stroke:rgb(0,0,0);stroke-width:2" /><circle cx="78.33333333333333" cy="76.66666666666666" r="3" fill="red" /><text x="78.33333333333333" y="76.66666666666666" fill="black" font-size="8">Prio: 1, Time: 5065</text><line x1="78.33333333333333" y1="76.66666666666666" x2="115.0" y2="85.0" style="stroke:rgb(0,0,0);stroke-width:2" /><circle cx="115.0" cy="85.0" r="3" fill="red" /><text x="115.0" y="85.0" fill="black" font-size="8">Prio: 1, Time: 5064</text><line x1="115.0" y1="85.0" x2="115.0" y2="101.66666666666667" style="stroke:rgb(0,0,0);stroke-width:2" /><circle cx="115.0" cy="101.66666666666667" r="3" fill="red" /><text x="115.0" y="101.66666666666667" fill="black" font-size="8">Prio: 2, Time: 9301</text><line x1="115.0" y1="101.66666666666667" x2="78.33333333333333" y2="93.33333333333333" style="stroke:rgb(0,0,0);stroke-width:2" /><circle cx="78.33333333333333" cy="93.33333333333333" r="3" fill="red" /><text x="78.33333333333333" y="93.33333333333333" fill="black" font-size="8">Prio: 2, Time: 9300</text><line x1="78.33333333333333" y1="93.33333333333333" x2="78.33333333333333" y2="110.0" style="stroke:rgb(0,0,0);stroke-width:2" /><circle cx="78.33333333333333" cy="110.0" r="3" fill="red" /><text x="78.33333333333333" y="110.0" fill="black" font-size="8">Prio: 3, Time: 13537</text><line x1="78.33333333333333" y1="110.0" x2="60.0" y2="126.66666666666666" style="stroke:rgb(0,0,0);stroke-width:2" /><circle cx="60.0" cy="126.66666666666666" r="3" fill="red" /><text x="60.0" y="126.66666666666666" fill="black" font-size="8">Prio: 3, Time: 13536</text><line x1="60.0" y1="126.66666666666666" x2="115.0" y2="118.33333333333334" style="stroke:rgb(0,0,0);stroke-width:2" /><circle cx="115.0" cy="118.33333333333334" r="3" fill="red" /><text x="115.0" y="118.33333333333334" fill="black" font-size="8">Prio: 4, Time: 18699</text><line x1="115.0" y1="118.33333333333334" x2="115.0" y2="135.0" style="stroke:rgb(0,0,0);stroke-width:2" /><circle cx="115.0" cy="135.0" r="3" fill="red" /><text x="115.0" y="135.0" fill="black" font-size="8">Prio: 4, Time: 18698</text><text x="60.0" y="215.0" fill="black" font-size="8">Path: 21,70, Priority: 0,00, DueDate: -8712,00</text><circle cx="235" cy="60" r="1" fill="gray" /><circle cx="235" cy="70" r="1" fill="gray" /><circle cx="235" cy="80" r="1" fill="gray" /><circle cx="235" cy="90" r="1" fill="gray" /><circle cx="235" cy="100" r="1" fill="gray" /><circle cx="235" cy="110" r="1" fill="gray" /><circle cx="235" cy="120" r="1" fill="gray" /><circle cx="235" cy="130" r="1" fill="gray" /><circle cx="235" cy="140" r="1" fill="gray" /><circle cx="235" cy="150" r="1" fill="gray" /><circle cx="235" cy="160" r="1" fill="gray" /><circle cx="245" cy="60" r="1" fill="gray" /><circle cx="245" cy="70" r="1" fill="gray" /><circle cx="245" cy="80" r="1" fill="gray" /><circle cx="245" cy="90" r="1" fill="gray" /><circle cx="245" cy="100" r="1" fill="gray" /><circle cx="245" cy="110" r="1" fill="gray" /><circle cx="245" cy="120" r="1" fill="gray" /><circle cx="245" cy="130" r="1" fill="gray" /><circle cx="245" cy="140" r="1" fill="gray" /><circle cx="245" cy="150" r="1" fill="gray" /><circle cx="245" cy="160" r="1" fill="gray" /><circle cx="255" cy="60" r="1" fill="gray" /><circle cx="255" cy="70" r="1" fill="gray" /><circle cx="255" cy="80" r="1" fill="gray" /><circle cx="255" cy="90" r="1" fill="gray" /><circle cx="255" cy="100" r="1" fill="gray" /><circle cx="255" cy="110" r="1" fill="gray" /><circle cx="255" cy="120" r="1" fill="gray" /><circle cx="255" cy="130" r="1" fill="gray" /><circle cx="255" cy="140" r="1" fill="gray" /><circle cx="255" cy="150" r="1" fill="gray" /><circle cx="255" cy="160" r="1" fill="gray" /><circle cx="265" cy="60" r="1" fill="gray" /><circle cx="265" cy="70" r="1" fill="gray" /><circle cx="265" cy="80" r="1" fill="gray" /><circle cx="265" cy="90" r="1" fill="gray" /><circle cx="265" cy="100" r="1" fill="gray" /><circle cx="265" cy="110" r="1" fill="gray" /><circle cx="265" cy="120" r="1" fill="gray" /><circle cx="265" cy="130" r="1" fill="gray" /><circle cx="265" cy="140" r="1" fill="gray" /><circle cx="265" cy="150" r="1" fill="gray" /><circle cx="265" cy="160" r="1" fill="gray" /><circle cx="275" cy="60" r="1" fill="gray" /><circle cx="275" cy="70" r="1" fill="gray" /><circle cx="275" cy="80" r="1" fill="gray" /><circle cx="275" cy="90" r="1" fill="gray" /><circle cx="275" cy="100" r="1" fill="gray" /><circle cx="275" cy="110" r="1" fill="gray" /><circle cx="275" cy="120" r="1" fill="gray" /><circle cx="275" cy="130" r="1" fill="gray" /><circle cx="275" cy="140" r="1" fill="gray" /><circle cx="275" cy="150" r="1" fill="gray" /><circle cx="275" cy="160" r="1" fill="gray" /><circle cx="285" cy="60" r="1" fill="gray" /><circle cx="285" cy="70" r="1" fill="gray" /><circle cx="285" cy="80" r="1" fill="gray" /><circle cx="285" cy="90" r="1" fill="gray" /><circle cx="285" cy="100" r="1" fill="gray" /><circle cx="285" cy="110" r="1" fill="gray" /><circle cx="285" cy="120" r="1" fill="gray" /><circle cx="285" cy="130" r="1" fill="gray" /><circle cx="285" cy="140" r="1" fill="gray" /><circle cx="285" cy="150" r="1" fill="gray" /><circle cx="285" cy="160" r="1" fill="gray" /><circle cx="290.0" cy="60.0" r="3" fill="blue" /><circle cx="290.0" cy="160.0" r="3" fill="blue" /><line x1="290.0" y1="60.0" x2="253.33333333333331" y2="76.66666666666666" style="stroke:rgb(0,0,0);stroke-width:2" /><line x1="290.0" y1="160.0" x2="235.0" y2="126.66666666666666" style="stroke:rgb(0,0,0);stroke-width:2" /><line x1="290.0" y1="60.0" x2="253.33333333333331" y2="76.66666666666666" style="stroke:rgb(0,0,0);stroke-width:2" /><circle cx="253.33333333333331" cy="76.66666666666666" r="3" fill="red" /><text x="253.33333333333331" y="76.66666666666666" fill="black" font-size="8">Prio: 1, Time: 5065</text><line x1="253.33333333333331" y1="76.66666666666666" x2="253.33333333333331" y2="93.33333333333333" style="stroke:rgb(0,0,0);stroke-width:2" /><circle cx="253.33333333333331" cy="93.33333333333333" r="3" fill="red" /><text x="253.33333333333331" y="93.33333333333333" fill="black" font-size="8">Prio: 2, Time: 9300</text><line x1="253.33333333333331" y1="93.33333333333333" x2="253.33333333333331" y2="110.0" style="stroke:rgb(0,0,0);stroke-width:2" /><circle cx="253.33333333333331" cy="110.0" r="3" fill="red" /><text x="253.33333333333331" y="110.0" fill="black" font-size="8">Prio: 3, Time: 13537</text><line x1="253.33333333333331" y1="110.0" x2="290.0" y2="101.66666666666667" style="stroke:rgb(0,0,0);stroke-width:2" /><circle cx="290.0" cy="101.66666666666667" r="3" fill="red" /><text x="290.0" y="101.66666666666667" fill="black" font-size="8">Prio: 2, Time: 9301</text><line x1="290.0" y1="101.66666666666667" x2="290.0" y2="85.0" style="stroke:rgb(0,0,0);stroke-width:2" /><circle cx="290.0" cy="85.0" r="3" fill="red" /><text x="290.0" y="85.0" fill="black" font-size="8">Prio: 1, Time: 5064</text><line x1="290.0" y1="85.0" x2="290.0" y2="118.33333333333334" style="stroke:rgb(0,0,0);stroke-width:2" /><circle cx="290.0" cy="118.33333333333334" r="3" fill="red" /><text x="290.0" y="118.33333333333334" fill="black" font-size="8">Prio: 4, Time: 18699</text><line x1="290.0" y1="118.33333333333334" x2="290.0" y2="135.0" style="stroke:rgb(0,0,0);stroke-width:2" /><circle cx="290.0" cy="135.0" r="3" fill="red" /><text x="290.0" y="135.0" fill="black" font-size="8">Prio: 4, Time: 18698</text><line x1="290.0" y1="135.0" x2="235.0" y2="126.66666666666666" style="stroke:rgb(0,0,0);stroke-width:2" /><circle cx="235.0" cy="126.66666666666666" r="3" fill="red" /><text x="235.0" y="126.66666666666666" fill="black" font-size="8">Prio: 3, Time: 13536</text><text x="235.0" y="215.0" fill="black" font-size="8">Path: 25,23, Priority: 6,00, DueDate: -6234,00</text><circle cx="410" cy="60" r="1" fill="gray" /><circle cx="410" cy="70" r="1" fill="gray" /><circle cx="410" cy="80" r="1" fill="gray" /><circle cx="410" cy="90" r="1" fill="gray" /><circle cx="410" cy="100" r="1" fill="gray" /><circle cx="410" cy="110" r="1" fill="gray" /><circle cx="410" cy="120" r="1" fill="gray" /><circle cx="410" cy="130" r="1" fill="gray" /><circle cx="410" cy="140" r="1" fill="gray" /><circle cx="410" cy="150" r="1" fill="gray" /><circle cx="410" cy="160" r="1" fill="gray" /><circle cx="420" cy="60" r="1" fill="gray" /><circle cx="420" cy="70" r="1" fill="gray" /><circle cx="420" cy="80" r="1" fill="gray" /><circle cx="420" cy="90" r="1" fill="gray" /><circle cx="420" cy="100" r="1" fill="gray" /><circle cx="420" cy="110" r="1" fill="gray" /><circle cx="420" cy="120" r="1" fill="gray" /><circle cx="420" cy="130" r="1" fill="gray" /><circle cx="420" cy="140" r="1" fill="gray" /><circle cx="420" cy="150" r="1" fill="gray" /><circle cx="420" cy="160" r="1" fill="gray" /><circle cx="430" cy="60" r="1" fill="gray" /><circle cx="430" cy="70" r="1" fill="gray" /><circle cx="430" cy="80" r="1" fill="gray" /><circle cx="430" cy="90" r="1" fill="gray" /><circle cx="430" cy="100" r="1" fill="gray" /><circle cx="430" cy="110" r="1" fill="gray" /><circle cx="430" cy="120" r="1" fill="gray" /><circle cx="430" cy="130" r="1" fill="gray" /><circle cx="430" cy="140" r="1" fill="gray" /><circle cx="430" cy="150" r="1" fill="gray" /><circle cx="430" cy="160" r="1" fill="gray" /><circle cx="440" cy="60" r="1" fill="gray" /><circle cx="440" cy="70" r="1" fill="gray" /><circle cx="440" cy="80" r="1" fill="gray" /><circle cx="440" cy="90" r="1" fill="gray" /><circle cx="440" cy="100" r="1" fill="gray" /><circle cx="440" cy="110" r="1" fill="gray" /><circle cx="440" cy="120" r="1" fill="gray" /><circle cx="440" cy="130" r="1" fill="gray" /><circle cx="440" cy="140" r="1" fill="gray" /><circle cx="440" cy="150" r="1" fill="gray" /><circle cx="440" cy="160" r="1" fill="gray" /><circle cx="450" cy="60" r="1" fill="gray" /><circle cx="450" cy="70" r="1" fill="gray" /><circle cx="450" cy="80" r="1" fill="gray" /><circle cx="450" cy="90" r="1" fill="gray" /><circle cx="450" cy="100" r="1" fill="gray" /><circle cx="450" cy="110" r="1" fill="gray" /><circle cx="450" cy="120" r="1" fill="gray" /><circle cx="450" cy="130" r="1" fill="gray" /><circle cx="450" cy="140" r="1" fill="gray" /><circle cx="450" cy="150" r="1" fill="gray" /><circle cx="450" cy="160" r="1" fill="gray" /><circle cx="460" cy="60" r="1" fill="gray" /><circle cx="460" cy="70" r="1" fill="gray" /><circle cx="460" cy="80" r="1" fill="gray" /><circle cx="460" cy="90" r="1" fill="gray" /><circle cx="460" cy="100" r="1" fill="gray" /><circle cx="460" cy="110" r="1" fill="gray" /><circle cx="460" cy="120" r="1" fill="gray" /><circle cx="460" cy="130" r="1" fill="gray" /><circle cx="460" cy="140" r="1" fill="gray" /><circle cx="460" cy="150" r="1" fill="gray" /><circle cx="460" cy="160" r="1" fill="gray" /><circle cx="465.0" cy="60.0" r="3" fill="blue" /><circle cx="465.0" cy="160.0" r="3" fill="blue" /><line x1="465.0" y1="60.0" x2="428.3333333333333" y2="76.66666666666666" style="stroke:rgb(0,0,0);stroke-width:2" /><line x1="465.0" y1="160.0" x2="465.0" y2="135.0" style="stroke:rgb(0,0,0);stroke-width:2" /><line x1="465.0" y1="60.0" x2="428.3333333333333" y2="76.66666666666666" style="stroke:rgb(0,0,0);stroke-width:2" /><circle cx="428.3333333333333" cy="76.66666666666666" r="3" fill="red" /><text x="428.3333333333333" y="76.66666666666666" fill="black" font-size="8">Prio: 1, Time: 5065</text><line x1="428.3333333333333" y1="76.66666666666666" x2="465.0" y2="85.0" style="stroke:rgb(0,0,0);stroke-width:2" /><circle cx="465.0" cy="85.0" r="3" fill="red" /><text x="465.0" y="85.0" fill="black" font-size="8">Prio: 1, Time: 5064</text><line x1="465.0" y1="85.0" x2="428.3333333333333" y2="93.33333333333333" style="stroke:rgb(0,0,0);stroke-width:2" /><circle cx="428.3333333333333" cy="93.33333333333333" r="3" fill="red" /><text x="428.3333333333333" y="93.33333333333333" fill="black" font-size="8">Prio: 2, Time: 9300</text><line x1="428.3333333333333" y1="93.33333333333333" x2="465.0" y2="101.66666666666667" style="stroke:rgb(0,0,0);stroke-width:2" /><circle cx="465.0" cy="101.66666666666667" r="3" fill="red" /><text x="465.0" y="101.66666666666667" fill="black" font-size="8">Prio: 2, Time: 9301</text><line x1="465.0" y1="101.66666666666667" x2="428.3333333333333" y2="110.0" style="stroke:rgb(0,0,0);stroke-width:2" /><circle cx="428.3333333333333" cy="110.0" r="3" fill="red" /><text x="428.3333333333333" y="110.0" fill="black" font-size="8">Prio: 3, Time: 13537</text><line x1="428.3333333333333" y1="110.0" x2="410.0" y2="126.66666666666666" style="stroke:rgb(0,0,0);stroke-width:2" /><circle cx="410.0" cy="126.66666666666666" r="3" fill="red" /><text x="410.0" y="126.66666666666666" fill="black" font-size="8">Prio: 3, Time: 13536</text><line x1="410.0" y1="126.66666666666666" x2="465.0" y2="118.33333333333334" style="stroke:rgb(0,0,0);stroke-width:2" /><circle cx="465.0" cy="118.33333333333334" r="3" fill="red" /><text x="465.0" y="118.33333333333334" fill="black" font-size="8">Prio: 4, Time: 18699</text><line x1="465.0" y1="118.33333333333334" x2="465.0" y2="135.0" style="stroke:rgb(0,0,0);stroke-width:2" /><circle cx="465.0" cy="135.0" r="3" fill="red" /><text x="465.0" y="135.0" fill="black" font-size="8">Prio: 4, Time: 18698</text><text x="410.0" y="215.0" fill="black" font-size="8">Path: 22,17, Priority: 0,00, DueDate: -6350,00</text><circle cx="585" cy="60" r="1" fill="gray" /><circle cx="585" cy="70" r="1" fill="gray" /><circle cx="585" cy="80" r="1" fill="gray" /><circle cx="585" cy="90" r="1" fill="gray" /><circle cx="585" cy="100" r="1" fill="gray" /><circle cx="585" cy="110" r="1" fill="gray" /><circle cx="585" cy="120" r="1" fill="gray" /><circle cx="585" cy="130" r="1" fill="gray" /><circle cx="585" cy="140" r="1" fill="gray" /><circle cx="585" cy="150" r="1" fill="gray" /><circle cx="585" cy="160" r="1" fill="gray" /><circle cx="595" cy="60" r="1" fill="gray" /><circle cx="595" cy="70" r="1" fill="gray" /><circle cx="595" cy="80" r="1" fill="gray" /><circle cx="595" cy="90" r="1" fill="gray" /><circle cx="595" cy="100" r="1" fill="gray" /><circle cx="595" cy="110" r="1" fill="gray" /><circle cx="595" cy="120" r="1" fill="gray" /><circle cx="595" cy="130" r="1" fill="gray" /><circle cx="595" cy="140" r="1" fill="gray" /><circle cx="595" cy="150" r="1" fill="gray" /><circle cx="595" cy="160" r="1" fill="gray" /><circle cx="605" cy="60" r="1" fill="gray" /><circle cx="605" cy="70" r="1" fill="gray" /><circle cx="605" cy="80" r="1" fill="gray" /><circle cx="605" cy="90" r="1" fill="gray" /><circle cx="605" cy="100" r="1" fill="gray" /><circle cx="605" cy="110" r="1" fill="gray" /><circle cx="605" cy="120" r="1" fill="gray" /><circle cx="605" cy="130" r="1" fill="gray" /><circle cx="605" cy="140" r="1" fill="gray" /><circle cx="605" cy="150" r="1" fill="gray" /><circle cx="605" cy="160" r="1" fill="gray" /><circle cx="615" cy="60" r="1" fill="gray" /><circle cx="615" cy="70" r="1" fill="gray" /><circle cx="615" cy="80" r="1" fill="gray" /><circle cx="615" cy="90" r="1" fill="gray" /><circle cx="615" cy="100" r="1" fill="gray" /><circle cx="615" cy="110" r="1" fill="gray" /><circle cx="615" cy="120" r="1" fill="gray" /><circle cx="615" cy="130" r="1" fill="gray" /><circle cx="615" cy="140" r="1" fill="gray" /><circle cx="615" cy="150" r="1" fill="gray" /><circle cx="615" cy="160" r="1" fill="gray" /><circle cx="625" cy="60" r="1" fill="gray" /><circle cx="625" cy="70" r="1" fill="gray" /><circle cx="625" cy="80" r="1" fill="gray" /><circle cx="625" cy="90" r="1" fill="gray" /><circle cx="625" cy="100" r="1" fill="gray" /><circle cx="625" cy="110" r="1" fill="gray" /><circle cx="625" cy="120" r="1" fill="gray" /><circle cx="625" cy="130" r="1" fill="gray" /><circle cx="625" cy="140" r="1" fill="gray" /><circle cx="625" cy="150" r="1" fill="gray" /><circle cx="625" cy="160" r="1" fill="gray" /><circle cx="635" cy="60" r="1" fill="gray" /><circle cx="635" cy="70" r="1" fill="gray" /><circle cx="635" cy="80" r="1" fill="gray" /><circle cx="635" cy="90" r="1" fill="gray" /><circle cx="635" cy="100" r="1" fill="gray" /><circle cx="635" cy="110" r="1" fill="gray" /><circle cx="635" cy="120" r="1" fill="gray" /><circle cx="635" cy="130" r="1" fill="gray" /><circle cx="635" cy="140" r="1" fill="gray" /><circle cx="635" cy="150" r="1" fill="gray" /><circle cx="635" cy="160" r="1" fill="gray" /><circle cx="640.0" cy="60.0" r="3" fill="blue" /><circle cx="640.0" cy="160.0" r="3" fill="blue" /><line x1="640.0" y1="60.0" x2="640.0" y2="85.0" style="stroke:rgb(0,0,0);stroke-width:2" /><line x1="640.0" y1="160.0" x2="640.0" y2="118.33333333333334" style="stroke:rgb(0,0,0);stroke-width:2" /><line x1="640.0" y1="60.0" x2="640.0" y2="85.0" style="stroke:rgb(0,0,0);stroke-width:2" /><circle cx="640.0" cy="85.0" r="3" fill="red" /><text x="640.0" y="85.0" fill="black" font-size="8">Prio: 1, Time: 5064</text><line x1="640.0" y1="85.0" x2="603.3333333333334" y2="76.66666666666666" style="stroke:rgb(0,0,0);stroke-width:2" /><circle cx="603.3333333333334" cy="76.66666666666666" r="3" fill="red" /><text x="603.3333333333334" y="76.66666666666666" fill="black" font-size="8">Prio: 1, Time: 5065</text><line x1="603.3333333333334" y1="76.66666666666666" x2="603.3333333333334" y2="93.33333333333333" style="stroke:rgb(0,0,0);stroke-width:2" /><circle cx="603.3333333333334" cy="93.33333333333333" r="3" fill="red" /><text x="603.3333333333334" y="93.33333333333333" fill="black" font-size="8">Prio: 2, Time: 9300</text><line x1="603.3333333333334" y1="93.33333333333333" x2="640.0" y2="101.66666666666667" style="stroke:rgb(0,0,0);stroke-width:2" /><circle cx="640.0" cy="101.66666666666667" r="3" fill="red" /><text x="640.0" y="101.66666666666667" fill="black" font-size="8">Prio: 2, Time: 9301</text><line x1="640.0" y1="101.66666666666667" x2="585.0" y2="126.66666666666666" style="stroke:rgb(0,0,0);stroke-width:2" /><circle cx="585.0" cy="126.66666666666666" r="3" fill="red" /><text x="585.0" y="126.66666666666666" fill="black" font-size="8">Prio: 3, Time: 13536</text><line x1="585.0" y1="126.66666666666666" x2="603.3333333333334" y2="110.0" style="stroke:rgb(0,0,0);stroke-width:2" /><circle cx="603.3333333333334" cy="110.0" r="3" fill="red" /><text x="603.3333333333334" y="110.0" fill="black" font-size="8">Prio: 3, Time: 13537</text><line x1="603.3333333333334" y1="110.0" x2="640.0" y2="135.0" style="stroke:rgb(0,0,0);stroke-width:2" /><circle cx="640.0" cy="135.0" r="3" fill="red" /><text x="640.0" y="135.0" fill="black" font-size="8">Prio: 4, Time: 18698</text><line x1="640.0" y1="135.0" x2="640.0" y2="118.33333333333334" style="stroke:rgb(0,0,0);stroke-width:2" /><circle cx="640.0" cy="118.33333333333334" r="3" fill="red" /><text x="640.0" y="118.33333333333334" fill="black" font-size="8">Prio: 4, Time: 18699</text><text x="585.0" y="215.0" fill="black" font-size="8">Path: 26,56, Priority: 0,00, DueDate: 2520,00</text></svg>