<svg width="848" height="220" xmlns="http://www.w3.org/2000/svg"><circle cx="60" cy="60" r="1" fill="gray" /><circle cx="60" cy="70" r="1" fill="gray" /><circle cx="60" cy="80" r="1" fill="gray" /><circle cx="60" cy="90" r="1" fill="gray" /><circle cx="60" cy="100" r="1" fill="gray" /><circle cx="60" cy="110" r="1" fill="gray" /><circle cx="60" cy="120" r="1" fill="gray" /><circle cx="60" cy="130" r="1" fill="gray" /><circle cx="60" cy="140" r="1" fill="gray" /><circle cx="60" cy="150" r="1" fill="gray" /><circle cx="60" cy="160" r="1" fill="gray" /><circle cx="70" cy="60" r="1" fill="gray" /><circle cx="70" cy="70" r="1" fill="gray" /><circle cx="70" cy="80" r="1" fill="gray" /><circle cx="70" cy="90" r="1" fill="gray" /><circle cx="70" cy="100" r="1" fill="gray" /><circle cx="70" cy="110" r="1" fill="gray" /><circle cx="70" cy="120" r="1" fill="gray" /><circle cx="70" cy="130" r="1" fill="gray" /><circle cx="70" cy="140" r="1" fill="gray" /><circle cx="70" cy="150" r="1" fill="gray" /><circle cx="70" cy="160" r="1" fill="gray" /><circle cx="80" cy="60" r="1" fill="gray" /><circle cx="80" cy="70" r="1" fill="gray" /><circle cx="80" cy="80" r="1" fill="gray" /><circle cx="80" cy="90" r="1" fill="gray" /><circle cx="80" cy="100" r="1" fill="gray" /><circle cx="80" cy="110" r="1" fill="gray" /><circle cx="80" cy="120" r="1" fill="gray" /><circle cx="80" cy="130" r="1" fill="gray" /><circle cx="80" cy="140" r="1" fill="gray" /><circle cx="80" cy="150" r="1" fill="gray" /><circle cx="80" cy="160" r="1" fill="gray" /><circle cx="90" cy="60" r="1" fill="gray" /><circle cx="90" cy="70" r="1" fill="gray" /><circle cx="90" cy="80" r="1" fill="gray" /><circle cx="90" cy="90" r="1" fill="gray" /><circle cx="90" cy="100" r="1" fill="gray" /><circle cx="90" cy="110" r="1" fill="gray" /><circle cx="90" cy="120" r="1" fill="gray" /><circle cx="90" cy="130" r="1" fill="gray" /><circle cx="90" cy="140" r="1" fill="gray" /><circle cx="90" cy="150" r="1" fill="gray" /><circle cx="90" cy="160" r="1" fill="gray" /><circle cx="100" cy="60" r="1" fill="gray" /><circle cx="100" cy="70" r="1" fill="gray" /><circle cx="100" cy="80" r="1" fill="gray" /><circle cx="100" cy="90" r="1" fill="gray" /><circle cx="100" cy="100" r="1" fill="gray" /><circle cx="100" cy="110" r="1" fill="gray" /><circle cx="100" cy="120" r="1" fill="gray" /><circle cx="100" cy="130" r="1" fill="gray" /><circle cx="100" cy="140" r="1" fill="gray" /><circle cx="100" cy="150" r="1" fill="gray" /><circle cx="100" cy="160" r="1" fill="gray" /><circle cx="110" cy="60" r="1" fill="gray" /><circle cx="110" cy="70" r="1" fill="gray" /><circle cx="110" cy="80" r="1" fill="gray" /><circle cx="110" cy="90" r="1" fill="gray" /><circle cx="110" cy="100" r="1" fill="gray" /><circle cx="110" cy="110" r="1" fill="gray" /><circle cx="110" cy="120" r="1" fill="gray" /><circle cx="110" cy="130" r="1" fill="gray" /><circle cx="110" cy="140" r="1" fill="gray" /><circle cx="110" cy="150" r="1" fill="gray" /><circle cx="110" cy="160" r="1" fill="gray" /><circle cx="120" cy="60" r="1" fill="gray" /><circle cx="120" cy="70" r="1" fill="gray" /><circle cx="120" cy="80" r="1" fill="gray" /><circle cx="120" cy="90" r="1" fill="gray" /><circle cx="120" cy="100" r="1" fill="gray" /><circle cx="120" cy="110" r="1" fill="gray" /><circle cx="120" cy="120" r="1" fill="gray" /><circle cx="120" cy="130" r="1" fill="gray" /><circle cx="120" cy="140" r="1" fill="gray" /><circle cx="120" cy="150" r="1" fill="gray" /><circle cx="120" cy="160" r="1" fill="gray" /><circle cx="130" cy="60" r="1" fill="gray" /><circle cx="130" cy="70" r="1" fill="gray" /><circle cx="130" cy="80" r="1" fill="gray" /><circle cx="130" cy="90" r="1" fill="gray" /><circle cx="130" cy="100" r="1" fill="gray" /><circle cx="130" cy="110" r="1" fill="gray" /><circle cx="130" cy="120" r="1" fill="gray" /><circle cx="130" cy="130" r="1" fill="gray" /><circle cx="130" cy="140" r="1" fill="gray" /><circle cx="130" cy="150" r="1" fill="gray" /><circle cx="130" cy="160" r="1" fill="gray" /><circle cx="140" cy="60" r="1" fill="gray" /><circle cx="140" cy="70" r="1" fill="gray" /><circle cx="140" cy="80" r="1" fill="gray" /><circle cx="140" cy="90" r="1" fill="gray" /><circle cx="140" cy="100" r="1" fill="gray" /><circle cx="140" cy="110" r="1" fill="gray" /><circle cx="140" cy="120" r="1" fill="gray" /><circle cx="140" cy="130" r="1" fill="gray" /><circle cx="140" cy="140" r="1" fill="gray" /><circle cx="140" cy="150" r="1" fill="gray" /><circle cx="140" cy="160" r="1" fill="gray" /><circle cx="150" cy="60" r="1" fill="gray" /><circle cx="150" cy="70" r="1" fill="gray" /><circle cx="150" cy="80" r="1" fill="gray" /><circle cx="150" cy="90" r="1" fill="gray" /><circle cx="150" cy="100" r="1" fill="gray" /><circle cx="150" cy="110" r="1" fill="gray" /><circle cx="150" cy="120" r="1" fill="gray" /><circle cx="150" cy="130" r="1" fill="gray" /><circle cx="150" cy="140" r="1" fill="gray" /><circle cx="150" cy="150" r="1" fill="gray" /><circle cx="150" cy="160" r="1" fill="gray" /><circle cx="96.80000000000001" cy="60.0" r="3" fill="blue" /><circle cx="96.80000000000001" cy="160.0" r="3" fill="blue" /><line x1="96.80000000000001" y1="60.0" x2="115.19999999999999" y2="76.66666666666666" style="stroke:rgb(0,0,0);stroke-width:2" /><line x1="96.80000000000001" y1="160.0" x2="96.80000000000001" y2="143.33333333333334" style="stroke:rgb(0,0,0);stroke-width:2" /><line x1="96.80000000000001" y1="60.0" x2="115.19999999999999" y2="76.66666666666666" style="stroke:rgb(0,0,0);stroke-width:2" /><circle cx="115.19999999999999" cy="76.66666666666666" r="3" fill="red" /><text x="115.19999999999999" y="76.66666666666666" fill="black" font-size="8">Prio: 1, Time: 4237</text><line x1="115.19999999999999" y1="76.66666666666666" x2="152.0" y2="76.66666666666666" style="stroke:rgb(0,0,0);stroke-width:2" /><circle cx="152.0" cy="76.66666666666666" r="3" fill="red" /><text x="152.0" y="76.66666666666666" fill="black" font-size="8">Prio: 1, Time: 4236</text><line x1="152.0" y1="76.66666666666666" x2="115.19999999999999" y2="93.33333333333333" style="stroke:rgb(0,0,0);stroke-width:2" /><circle cx="115.19999999999999" cy="93.33333333333333" r="3" fill="red" /><text x="115.19999999999999" y="93.33333333333333" fill="black" font-size="8">Prio: 2, Time: 10671</text><line x1="115.19999999999999" y1="93.33333333333333" x2="60.0" y2="110.0" style="stroke:rgb(0,0,0);stroke-width:2" /><circle cx="60.0" cy="110.0" r="3" fill="red" /><text x="60.0" y="110.0" fill="black" font-size="8">Prio: 2, Time: 10670</text><line x1="60.0" y1="110.0" x2="78.4" y2="118.33333333333334" style="stroke:rgb(0,0,0);stroke-width:2" /><circle cx="78.4" cy="118.33333333333334" r="3" fill="red" /><text x="78.4" y="118.33333333333334" fill="black" font-size="8">Prio: 3, Time: 14321</text><line x1="78.4" y1="118.33333333333334" x2="115.19999999999999" y2="126.66666666666666" style="stroke:rgb(0,0,0);stroke-width:2" /><circle cx="115.19999999999999" cy="126.66666666666666" r="3" fill="red" /><text x="115.19999999999999" y="126.66666666666666" fill="black" font-size="8">Prio: 3, Time: 14320</text><line x1="115.19999999999999" y1="126.66666666666666" x2="152.0" y2="135.0" style="stroke:rgb(0,0,0);stroke-width:2" /><circle cx="152.0" cy="135.0" r="3" fill="red" /><text x="152.0" y="135.0" fill="black" font-size="8">Prio: 4, Time: 19719</text><line x1="152.0" y1="135.0" x2="96.80000000000001" y2="143.33333333333334" style="stroke:rgb(0,0,0);stroke-width:2" /><circle cx="96.80000000000001" cy="143.33333333333334" r="3" fill="red" /><text x="96.80000000000001" y="143.33333333333334" fill="black" font-size="8">Prio: 4, Time: 19718</text><text x="60.0" y="215.0" fill="black" font-size="8">Path: 21,72, Priority: 0,00, DueDate: -11008,00</text><circle cx="272" cy="60" r="1" fill="gray" /><circle cx="272" cy="70" r="1" fill="gray" /><circle cx="272" cy="80" r="1" fill="gray" /><circle cx="272" cy="90" r="1" fill="gray" /><circle cx="272" cy="100" r="1" fill="gray" /><circle cx="272" cy="110" r="1" fill="gray" /><circle cx="272" cy="120" r="1" fill="gray" /><circle cx="272" cy="130" r="1" fill="gray" /><circle cx="272" cy="140" r="1" fill="gray" /><circle cx="272" cy="150" r="1" fill="gray" /><circle cx="272" cy="160" r="1" fill="gray" /><circle cx="282" cy="60" r="1" fill="gray" /><circle cx="282" cy="70" r="1" fill="gray" /><circle cx="282" cy="80" r="1" fill="gray" /><circle cx="282" cy="90" r="1" fill="gray" /><circle cx="282" cy="100" r="1" fill="gray" /><circle cx="282" cy="110" r="1" fill="gray" /><circle cx="282" cy="120" r="1" fill="gray" /><circle cx="282" cy="130" r="1" fill="gray" /><circle cx="282" cy="140" r="1" fill="gray" /><circle cx="282" cy="150" r="1" fill="gray" /><circle cx="282" cy="160" r="1" fill="gray" /><circle cx="292" cy="60" r="1" fill="gray" /><circle cx="292" cy="70" r="1" fill="gray" /><circle cx="292" cy="80" r="1" fill="gray" /><circle cx="292" cy="90" r="1" fill="gray" /><circle cx="292" cy="100" r="1" fill="gray" /><circle cx="292" cy="110" r="1" fill="gray" /><circle cx="292" cy="120" r="1" fill="gray" /><circle cx="292" cy="130" r="1" fill="gray" /><circle cx="292" cy="140" r="1" fill="gray" /><circle cx="292" cy="150" r="1" fill="gray" /><circle cx="292" cy="160" r="1" fill="gray" /><circle cx="302" cy="60" r="1" fill="gray" /><circle cx="302" cy="70" r="1" fill="gray" /><circle cx="302" cy="80" r="1" fill="gray" /><circle cx="302" cy="90" r="1" fill="gray" /><circle cx="302" cy="100" r="1" fill="gray" /><circle cx="302" cy="110" r="1" fill="gray" /><circle cx="302" cy="120" r="1" fill="gray" /><circle cx="302" cy="130" r="1" fill="gray" /><circle cx="302" cy="140" r="1" fill="gray" /><circle cx="302" cy="150" r="1" fill="gray" /><circle cx="302" cy="160" r="1" fill="gray" /><circle cx="312" cy="60" r="1" fill="gray" /><circle cx="312" cy="70" r="1" fill="gray" /><circle cx="312" cy="80" r="1" fill="gray" /><circle cx="312" cy="90" r="1" fill="gray" /><circle cx="312" cy="100" r="1" fill="gray" /><circle cx="312" cy="110" r="1" fill="gray" /><circle cx="312" cy="120" r="1" fill="gray" /><circle cx="312" cy="130" r="1" fill="gray" /><circle cx="312" cy="140" r="1" fill="gray" /><circle cx="312" cy="150" r="1" fill="gray" /><circle cx="312" cy="160" r="1" fill="gray" /><circle cx="322" cy="60" r="1" fill="gray" /><circle cx="322" cy="70" r="1" fill="gray" /><circle cx="322" cy="80" r="1" fill="gray" /><circle cx="322" cy="90" r="1" fill="gray" /><circle cx="322" cy="100" r="1" fill="gray" /><circle cx="322" cy="110" r="1" fill="gray" /><circle cx="322" cy="120" r="1" fill="gray" /><circle cx="322" cy="130" r="1" fill="gray" /><circle cx="322" cy="140" r="1" fill="gray" /><circle cx="322" cy="150" r="1" fill="gray" /><circle cx="322" cy="160" r="1" fill="gray" /><circle cx="332" cy="60" r="1" fill="gray" /><circle cx="332" cy="70" r="1" fill="gray" /><circle cx="332" cy="80" r="1" fill="gray" /><circle cx="332" cy="90" r="1" fill="gray" /><circle cx="332" cy="100" r="1" fill="gray" /><circle cx="332" cy="110" r="1" fill="gray" /><circle cx="332" cy="120" r="1" fill="gray" /><circle cx="332" cy="130" r="1" fill="gray" /><circle cx="332" cy="140" r="1" fill="gray" /><circle cx="332" cy="150" r="1" fill="gray" /><circle cx="332" cy="160" r="1" fill="gray" /><circle cx="342" cy="60" r="1" fill="gray" /><circle cx="342" cy="70" r="1" fill="gray" /><circle cx="342" cy="80" r="1" fill="gray" /><circle cx="342" cy="90" r="1" fill="gray" /><circle cx="342" cy="100" r="1" fill="gray" /><circle cx="342" cy="110" r="1" fill="gray" /><circle cx="342" cy="120" r="1" fill="gray" /><circle cx="342" cy="130" r="1" fill="gray" /><circle cx="342" cy="140" r="1" fill="gray" /><circle cx="342" cy="150" r="1" fill="gray" /><circle cx="342" cy="160" r="1" fill="gray" /><circle cx="352" cy="60" r="1" fill="gray" /><circle cx="352" cy="70" r="1" fill="gray" /><circle cx="352" cy="80" r="1" fill="gray" /><circle cx="352" cy="90" r="1" fill="gray" /><circle cx="352" cy="100" r="1" fill="gray" /><circle cx="352" cy="110" r="1" fill="gray" /><circle cx="352" cy="120" r="1" fill="gray" /><circle cx="352" cy="130" r="1" fill="gray" /><circle cx="352" cy="140" r="1" fill="gray" /><circle cx="352" cy="150" r="1" fill="gray" /><circle cx="352" cy="160" r="1" fill="gray" /><circle cx="362" cy="60" r="1" fill="gray" /><circle cx="362" cy="70" r="1" fill="gray" /><circle cx="362" cy="80" r="1" fill="gray" /><circle cx="362" cy="90" r="1" fill="gray" /><circle cx="362" cy="100" r="1" fill="gray" /><circle cx="362" cy="110" r="1" fill="gray" /><circle cx="362" cy="120" r="1" fill="gray" /><circle cx="362" cy="130" r="1" fill="gray" /><circle cx="362" cy="140" r="1" fill="gray" /><circle cx="362" cy="150" r="1" fill="gray" /><circle cx="362" cy="160" r="1" fill="gray" /><circle cx="308.8" cy="60.0" r="3" fill="blue" /><circle cx="308.8" cy="160.0" r="3" fill="blue" /><line x1="308.8" y1="60.0" x2="327.2" y2="76.66666666666666" style="stroke:rgb(0,0,0);stroke-width:2" /><line x1="308.8" y1="160.0" x2="364.0" y2="135.0" style="stroke:rgb(0,0,0);stroke-width:2" /><line x1="308.8" y1="60.0" x2="327.2" y2="76.66666666666666" style="stroke:rgb(0,0,0);stroke-width:2" /><circle cx="327.2" cy="76.66666666666666" r="3" fill="red" /><text x="327.2" y="76.66666666666666" fill="black" font-size="8">Prio: 1, Time: 4237</text><line x1="327.2" y1="76.66666666666666" x2="327.2" y2="93.33333333333333" style="stroke:rgb(0,0,0);stroke-width:2" /><circle cx="327.2" cy="93.33333333333333" r="3" fill="red" /><text x="327.2" y="93.33333333333333" fill="black" font-size="8">Prio: 2, Time: 10671</text><line x1="327.2" y1="93.33333333333333" x2="364.0" y2="76.66666666666666" style="stroke:rgb(0,0,0);stroke-width:2" /><circle cx="364.0" cy="76.66666666666666" r="3" fill="red" /><text x="364.0" y="76.66666666666666" fill="black" font-size="8">Prio: 1, Time: 4236</text><line x1="364.0" y1="76.66666666666666" x2="327.2" y2="126.66666666666666" style="stroke:rgb(0,0,0);stroke-width:2" /><circle cx="327.2" cy="126.66666666666666" r="3" fill="red" /><text x="327.2" y="126.66666666666666" fill="black" font-size="8">Prio: 3, Time: 14320</text><line x1="327.2" y1="126.66666666666666" x2="308.8" y2="143.33333333333334" style="stroke:rgb(0,0,0);stroke-width:2" /><circle cx="308.8" cy="143.33333333333334" r="3" fill="red" /><text x="308.8" y="143.33333333333334" fill="black" font-size="8">Prio: 4, Time: 19718</text><line x1="308.8" y1="143.33333333333334" x2="290.4" y2="118.33333333333334" style="stroke:rgb(0,0,0);stroke-width:2" /><circle cx="290.4" cy="118.33333333333334" r="3" fill="red" /><text x="290.4" y="118.33333333333334" fill="black" font-size="8">Prio: 3, Time: 14321</text><line x1="290.4" y1="118.33333333333334" x2="272.0" y2="110.0" style="stroke:rgb(0,0,0);stroke-width:2" /><circle cx="272.0" cy="110.0" r="3" fill="red" /><text x="272.0" y="110.0" fill="black" font-size="8">Prio: 2, Time: 10670</text><line x1="272.0" y1="110.0" x2="364.0" y2="135.0" style="stroke:rgb(0,0,0);stroke-width:2" /><circle cx="364.0" cy="135.0" r="3" fill="red" /><text x="364.0" y="135.0" fill="black" font-size="8">Prio: 4, Time: 19719</text><text x="272.0" y="215.0" fill="black" font-size="8">Path: 30,28, Priority: 6,00, DueDate: 9678,00</text><circle cx="484" cy="60" r="1" fill="gray" /><circle cx="484" cy="70" r="1" fill="gray" /><circle cx="484" cy="80" r="1" fill="gray" /><circle cx="484" cy="90" r="1" fill="gray" /><circle cx="484" cy="100" r="1" fill="gray" /><circle cx="484" cy="110" r="1" fill="gray" /><circle cx="484" cy="120" r="1" fill="gray" /><circle cx="484" cy="130" r="1" fill="gray" /><circle cx="484" cy="140" r="1" fill="gray" /><circle cx="484" cy="150" r="1" fill="gray" /><circle cx="484" cy="160" r="1" fill="gray" /><circle cx="494" cy="60" r="1" fill="gray" /><circle cx="494" cy="70" r="1" fill="gray" /><circle cx="494" cy="80" r="1" fill="gray" /><circle cx="494" cy="90" r="1" fill="gray" /><circle cx="494" cy="100" r="1" fill="gray" /><circle cx="494" cy="110" r="1" fill="gray" /><circle cx="494" cy="120" r="1" fill="gray" /><circle cx="494" cy="130" r="1" fill="gray" /><circle cx="494" cy="140" r="1" fill="gray" /><circle cx="494" cy="150" r="1" fill="gray" /><circle cx="494" cy="160" r="1" fill="gray" /><circle cx="504" cy="60" r="1" fill="gray" /><circle cx="504" cy="70" r="1" fill="gray" /><circle cx="504" cy="80" r="1" fill="gray" /><circle cx="504" cy="90" r="1" fill="gray" /><circle cx="504" cy="100" r="1" fill="gray" /><circle cx="504" cy="110" r="1" fill="gray" /><circle cx="504" cy="120" r="1" fill="gray" /><circle cx="504" cy="130" r="1" fill="gray" /><circle cx="504" cy="140" r="1" fill="gray" /><circle cx="504" cy="150" r="1" fill="gray" /><circle cx="504" cy="160" r="1" fill="gray" /><circle cx="514" cy="60" r="1" fill="gray" /><circle cx="514" cy="70" r="1" fill="gray" /><circle cx="514" cy="80" r="1" fill="gray" /><circle cx="514" cy="90" r="1" fill="gray" /><circle cx="514" cy="100" r="1" fill="gray" /><circle cx="514" cy="110" r="1" fill="gray" /><circle cx="514" cy="120" r="1" fill="gray" /><circle cx="514" cy="130" r="1" fill="gray" /><circle cx="514" cy="140" r="1" fill="gray" /><circle cx="514" cy="150" r="1" fill="gray" /><circle cx="514" cy="160" r="1" fill="gray" /><circle cx="524" cy="60" r="1" fill="gray" /><circle cx="524" cy="70" r="1" fill="gray" /><circle cx="524" cy="80" r="1" fill="gray" /><circle cx="524" cy="90" r="1" fill="gray" /><circle cx="524" cy="100" r="1" fill="gray" /><circle cx="524" cy="110" r="1" fill="gray" /><circle cx="524" cy="120" r="1" fill="gray" /><circle cx="524" cy="130" r="1" fill="gray" /><circle cx="524" cy="140" r="1" fill="gray" /><circle cx="524" cy="150" r="1" fill="gray" /><circle cx="524" cy="160" r="1" fill="gray" /><circle cx="534" cy="60" r="1" fill="gray" /><circle cx="534" cy="70" r="1" fill="gray" /><circle cx="534" cy="80" r="1" fill="gray" /><circle cx="534" cy="90" r="1" fill="gray" /><circle cx="534" cy="100" r="1" fill="gray" /><circle cx="534" cy="110" r="1" fill="gray" /><circle cx="534" cy="120" r="1" fill="gray" /><circle cx="534" cy="130" r="1" fill="gray" /><circle cx="534" cy="140" r="1" fill="gray" /><circle cx="534" cy="150" r="1" fill="gray" /><circle cx="534" cy="160" r="1" fill="gray" /><circle cx="544" cy="60" r="1" fill="gray" /><circle cx="544" cy="70" r="1" fill="gray" /><circle cx="544" cy="80" r="1" fill="gray" /><circle cx="544" cy="90" r="1" fill="gray" /><circle cx="544" cy="100" r="1" fill="gray" /><circle cx="544" cy="110" r="1" fill="gray" /><circle cx="544" cy="120" r="1" fill="gray" /><circle cx="544" cy="130" r="1" fill="gray" /><circle cx="544" cy="140" r="1" fill="gray" /><circle cx="544" cy="150" r="1" fill="gray" /><circle cx="544" cy="160" r="1" fill="gray" /><circle cx="554" cy="60" r="1" fill="gray" /><circle cx="554" cy="70" r="1" fill="gray" /><circle cx="554" cy="80" r="1" fill="gray" /><circle cx="554" cy="90" r="1" fill="gray" /><circle cx="554" cy="100" r="1" fill="gray" /><circle cx="554" cy="110" r="1" fill="gray" /><circle cx="554" cy="120" r="1" fill="gray" /><circle cx="554" cy="130" r="1" fill="gray" /><circle cx="554" cy="140" r="1" fill="gray" /><circle cx="554" cy="150" r="1" fill="gray" /><circle cx="554" cy="160" r="1" fill="gray" /><circle cx="564" cy="60" r="1" fill="gray" /><circle cx="564" cy="70" r="1" fill="gray" /><circle cx="564" cy="80" r="1" fill="gray" /><circle cx="564" cy="90" r="1" fill="gray" /><circle cx="564" cy="100" r="1" fill="gray" /><circle cx="564" cy="110" r="1" fill="gray" /><circle cx="564" cy="120" r="1" fill="gray" /><circle cx="564" cy="130" r="1" fill="gray" /><circle cx="564" cy="140" r="1" fill="gray" /><circle cx="564" cy="150" r="1" fill="gray" /><circle cx="564" cy="160" r="1" fill="gray" /><circle cx="574" cy="60" r="1" fill="gray" /><circle cx="574" cy="70" r="1" fill="gray" /><circle cx="574" cy="80" r="1" fill="gray" /><circle cx="574" cy="90" r="1" fill="gray" /><circle cx="574" cy="100" r="1" fill="gray" /><circle cx="574" cy="110" r="1" fill="gray" /><circle cx="574" cy="120" r="1" fill="gray" /><circle cx="574" cy="130" r="1" fill="gray" /><circle cx="574" cy="140" r="1" fill="gray" /><circle cx="574" cy="150" r="1" fill="gray" /><circle cx="574" cy="160" r="1" fill="gray" /><circle cx="520.8" cy="60.0" r="3" fill="blue" /><circle cx="520.8" cy="160.0" r="3" fill="blue" /><line x1="520.8" y1="60.0" x2="539.2" y2="76.66666666666666" style="stroke:rgb(0,0,0);stroke-width:2" /><line x1="520.8" y1="160.0" x2="576.0" y2="135.0" style="stroke:rgb(0,0,0);stroke-width:2" /><line x1="520.8" y1="60.0" x2="539.2" y2="76.66666666666666" style="stroke:rgb(0,0,0);stroke-width:2" /><circle cx="539.2" cy="76.66666666666666" r="3" fill="red" /><text x="539.2" y="76.66666666666666" fill="black" font-size="8">Prio: 1, Time: 4237</text><line x1="539.2" y1="76.66666666666666" x2="576.0" y2="76.66666666666666" style="stroke:rgb(0,0,0);stroke-width:2" /><circle cx="576.0" cy="76.66666666666666" r="3" fill="red" /><text x="576.0" y="76.66666666666666" fill="black" font-size="8">Prio: 1, Time: 4236</text><line x1="576.0" y1="76.66666666666666" x2="484.0" y2="110.0" style="stroke:rgb(0,0,0);stroke-width:2" /><circle cx="484.0" cy="110.0" r="3" fill="red" /><text x="484.0" y="110.0" fill="black" font-size="8">Prio: 2, Time: 10670</text><line x1="484.0" y1="110.0" x2="539.2" y2="93.33333333333333" style="stroke:rgb(0,0,0);stroke-width:2" /><circle cx="539.2" cy="93.33333333333333" r="3" fill="red" /><text x="539.2" y="93.33333333333333" fill="black" font-size="8">Prio: 2, Time: 10671</text><line x1="539.2" y1="93.33333333333333" x2="539.2" y2="126.66666666666666" style="stroke:rgb(0,0,0);stroke-width:2" /><circle cx="539.2" cy="126.66666666666666" r="3" fill="red" /><text x="539.2" y="126.66666666666666" fill="black" font-size="8">Prio: 3, Time: 14320</text><line x1="539.2" y1="126.66666666666666" x2="502.4" y2="118.33333333333334" style="stroke:rgb(0,0,0);stroke-width:2" /><circle cx="502.4" cy="118.33333333333334" r="3" fill="red" /><text x="502.4" y="118.33333333333334" fill="black" font-size="8">Prio: 3, Time: 14321</text><line x1="502.4" y1="118.33333333333334" x2="520.8" y2="143.33333333333334" style="stroke:rgb(0,0,0);stroke-width:2" /><circle cx="520.8" cy="143.33333333333334" r="3" fill="red" /><text x="520.8" y="143.33333333333334" fill="black" font-size="8">Prio: 4, Time: 19718</text><line x1="520.8" y1="143.33333333333334" x2="576.0" y2="135.0" style="stroke:rgb(0,0,0);stroke-width:2" /><circle cx="576.0" cy="135.0" r="3" fill="red" /><text x="576.0" y="135.0" fill="black" font-size="8">Prio: 4, Time: 19719</text><text x="484.0" y="215.0" fill="black" font-size="8">Path: 31,05, Priority: 0,00, DueDate: 22635,00</text><circle cx="696" cy="60" r="1" fill="gray" /><circle cx="696" cy="70" r="1" fill="gray" /><circle cx="696" cy="80" r="1" fill="gray" /><circle cx="696" cy="90" r="1" fill="gray" /><circle cx="696" cy="100" r="1" fill="gray" /><circle cx="696" cy="110" r="1" fill="gray" /><circle cx="696" cy="120" r="1" fill="gray" /><circle cx="696" cy="130" r="1" fill="gray" /><circle cx="696" cy="140" r="1" fill="gray" /><circle cx="696" cy="150" r="1" fill="gray" /><circle cx="696" cy="160" r="1" fill="gray" /><circle cx="706" cy="60" r="1" fill="gray" /><circle cx="706" cy="70" r="1" fill="gray" /><circle cx="706" cy="80" r="1" fill="gray" /><circle cx="706" cy="90" r="1" fill="gray" /><circle cx="706" cy="100" r="1" fill="gray" /><circle cx="706" cy="110" r="1" fill="gray" /><circle cx="706" cy="120" r="1" fill="gray" /><circle cx="706" cy="130" r="1" fill="gray" /><circle cx="706" cy="140" r="1" fill="gray" /><circle cx="706" cy="150" r="1" fill="gray" /><circle cx="706" cy="160" r="1" fill="gray" /><circle cx="716" cy="60" r="1" fill="gray" /><circle cx="716" cy="70" r="1" fill="gray" /><circle cx="716" cy="80" r="1" fill="gray" /><circle cx="716" cy="90" r="1" fill="gray" /><circle cx="716" cy="100" r="1" fill="gray" /><circle cx="716" cy="110" r="1" fill="gray" /><circle cx="716" cy="120" r="1" fill="gray" /><circle cx="716" cy="130" r="1" fill="gray" /><circle cx="716" cy="140" r="1" fill="gray" /><circle cx="716" cy="150" r="1" fill="gray" /><circle cx="716" cy="160" r="1" fill="gray" /><circle cx="726" cy="60" r="1" fill="gray" /><circle cx="726" cy="70" r="1" fill="gray" /><circle cx="726" cy="80" r="1" fill="gray" /><circle cx="726" cy="90" r="1" fill="gray" /><circle cx="726" cy="100" r="1" fill="gray" /><circle cx="726" cy="110" r="1" fill="gray" /><circle cx="726" cy="120" r="1" fill="gray" /><circle cx="726" cy="130" r="1" fill="gray" /><circle cx="726" cy="140" r="1" fill="gray" /><circle cx="726" cy="150" r="1" fill="gray" /><circle cx="726" cy="160" r="1" fill="gray" /><circle cx="736" cy="60" r="1" fill="gray" /><circle cx="736" cy="70" r="1" fill="gray" /><circle cx="736" cy="80" r="1" fill="gray" /><circle cx="736" cy="90" r="1" fill="gray" /><circle cx="736" cy="100" r="1" fill="gray" /><circle cx="736" cy="110" r="1" fill="gray" /><circle cx="736" cy="120" r="1" fill="gray" /><circle cx="736" cy="130" r="1" fill="gray" /><circle cx="736" cy="140" r="1" fill="gray" /><circle cx="736" cy="150" r="1" fill="gray" /><circle cx="736" cy="160" r="1" fill="gray" /><circle cx="746" cy="60" r="1" fill="gray" /><circle cx="746" cy="70" r="1" fill="gray" /><circle cx="746" cy="80" r="1" fill="gray" /><circle cx="746" cy="90" r="1" fill="gray" /><circle cx="746" cy="100" r="1" fill="gray" /><circle cx="746" cy="110" r="1" fill="gray" /><circle cx="746" cy="120" r="1" fill="gray" /><circle cx="746" cy="130" r="1" fill="gray" /><circle cx="746" cy="140" r="1" fill="gray" /><circle cx="746" cy="150" r="1" fill="gray" /><circle cx="746" cy="160" r="1" fill="gray" /><circle cx="756" cy="60" r="1" fill="gray" /><circle cx="756" cy="70" r="1" fill="gray" /><circle cx="756" cy="80" r="1" fill="gray" /><circle cx="756" cy="90" r="1" fill="gray" /><circle cx="756" cy="100" r="1" fill="gray" /><circle cx="756" cy="110" r="1" fill="gray" /><circle cx="756" cy="120" r="1" fill="gray" /><circle cx="756" cy="130" r="1" fill="gray" /><circle cx="756" cy="140" r="1" fill="gray" /><circle cx="756" cy="150" r="1" fill="gray" /><circle cx="756" cy="160" r="1" fill="gray" /><circle cx="766" cy="60" r="1" fill="gray" /><circle cx="766" cy="70" r="1" fill="gray" /><circle cx="766" cy="80" r="1" fill="gray" /><circle cx="766" cy="90" r="1" fill="gray" /><circle cx="766" cy="100" r="1" fill="gray" /><circle cx="766" cy="110" r="1" fill="gray" /><circle cx="766" cy="120" r="1" fill="gray" /><circle cx="766" cy="130" r="1" fill="gray" /><circle cx="766" cy="140" r="1" fill="gray" /><circle cx="766" cy="150" r="1" fill="gray" /><circle cx="766" cy="160" r="1" fill="gray" /><circle cx="776" cy="60" r="1" fill="gray" /><circle cx="776" cy="70" r="1" fill="gray" /><circle cx="776" cy="80" r="1" fill="gray" /><circle cx="776" cy="90" r="1" fill="gray" /><circle cx="776" cy="100" r="1" fill="gray" /><circle cx="776" cy="110" r="1" fill="gray" /><circle cx="776" cy="120" r="1" fill="gray" /><circle cx="776" cy="130" r="1" fill="gray" /><circle cx="776" cy="140" r="1" fill="gray" /><circle cx="776" cy="150" r="1" fill="gray" /><circle cx="776" cy="160" r="1" fill="gray" /><circle cx="786" cy="60" r="1" fill="gray" /><circle cx="786" cy="70" r="1" fill="gray" /><circle cx="786" cy="80" r="1" fill="gray" /><circle cx="786" cy="90" r="1" fill="gray" /><circle cx="786" cy="100" r="1" fill="gray" /><circle cx="786" cy="110" r="1" fill="gray" /><circle cx="786" cy="120" r="1" fill="gray" /><circle cx="786" cy="130" r="1" fill="gray" /><circle cx="786" cy="140" r="1" fill="gray" /><circle cx="786" cy="150" r="1" fill="gray" /><circle cx="786" cy="160" r="1" fill="gray" /><circle cx="732.8" cy="60.0" r="3" fill="blue" /><circle cx="732.8" cy="160.0" r="3" fill="blue" /><line x1="732.8" y1="60.0" x2="788.0" y2="76.66666666666666" style="stroke:rgb(0,0,0);stroke-width:2" /><line x1="732.8" y1="160.0" x2="788.0" y2="135.0" style="stroke:rgb(0,0,0);stroke-width:2" /><line x1="732.8" y1="60.0" x2="788.0" y2="76.66666666666666" style="stroke:rgb(0,0,0);stroke-width:2" /><circle cx="788.0" cy="76.66666666666666" r="3" fill="red" /><text x="788.0" y="76.66666666666666" fill="black" font-size="8">Prio: 1, Time: 4236</text><line x1="788.0" y1="76.66666666666666" x2="751.2" y2="76.66666666666666" style="stroke:rgb(0,0,0);stroke-width:2" /><circle cx="751.2" cy="76.66666666666666" r="3" fill="red" /><text x="751.2" y="76.66666666666666" fill="black" font-size="8">Prio: 1, Time: 4237</text><line x1="751.2" y1="76.66666666666666" x2="696.0" y2="110.0" style="stroke:rgb(0,0,0);stroke-width:2" /><circle cx="696.0" cy="110.0" r="3" fill="red" /><text x="696.0" y="110.0" fill="black" font-size="8">Prio: 2, Time: 10670</text><line x1="696.0" y1="110.0" x2="751.2" y2="93.33333333333333" style="stroke:rgb(0,0,0);stroke-width:2" /><circle cx="751.2" cy="93.33333333333333" r="3" fill="red" /><text x="751.2" y="93.33333333333333" fill="black" font-size="8">Prio: 2, Time: 10671</text><line x1="751.2" y1="93.33333333333333" x2="751.2" y2="126.66666666666666" style="stroke:rgb(0,0,0);stroke-width:2" /><circle cx="751.2" cy="126.66666666666666" r="3" fill="red" /><text x="751.2" y="126.66666666666666" fill="black" font-size="8">Prio: 3, Time: 14320</text><line x1="751.2" y1="126.66666666666666" x2="714.4" y2="118.33333333333334" style="stroke:rgb(0,0,0);stroke-width:2" /><circle cx="714.4" cy="118.33333333333334" r="3" fill="red" /><text x="714.4" y="118.33333333333334" fill="black" font-size="8">Prio: 3, Time: 14321</text><line x1="714.4" y1="118.33333333333334" x2="732.8" y2="143.33333333333334" style="stroke:rgb(0,0,0);stroke-width:2" /><circle cx="732.8" cy="143.33333333333334" r="3" fill="red" /><text x="732.8" y="143.33333333333334" fill="black" font-size="8">Prio: 4, Time: 19718</text><line x1="732.8" y1="143.33333333333334" x2="788.0" y2="135.0" style="stroke:rgb(0,0,0);stroke-width:2" /><circle cx="788.0" cy="135.0" r="3" fill="red" /><text x="788.0" y="135.0" fill="black" font-size="8">Prio: 4, Time: 19719</text><text x="696.0" y="215.0" fill="black" font-size="8">Path: 31,01, Priority: 0,00, DueDate: 25172,00</text></svg>